<svg t="1728540332738" class="icon" viewBox="0 0 1024 1024" version="1.1" xmlns="http://www.w3.org/2000/svg" p-id="7100" width="200" height="200"><path d="M964.8 64c29.866667 0 55.466667 19.2 59.733333 44.8v462.933333c0 96-72.533333 177.066667-170.666666 183.466667H205.333333l138.666667 117.333333c23.466667 19.2 23.466667 53.333333 0 72.533334-21.333333 19.2-55.466667 19.2-78.933333 4.266666l-6.4-4.266666L17.6 740.266667c-23.466667-19.2-23.466667-53.333333 0-72.533334l241.066667-204.8c23.466667-19.2 61.866667-19.2 85.333333 0 21.333333 19.2 23.466667 46.933333 4.266667 68.266667l-4.266667 4.266667-138.666667 117.333333h637.866667c27.733333 0 55.466667-29.866667 59.733333-72.533333V115.2c2.133333-27.733333 27.733333-51.2 61.866667-51.2z" p-id="7101"></path></svg>