<svg height="1024" node-id="1" sillyvg="true" template-height="1024" template-width="1024" version="1.1" viewBox="0 0 1024 1024" width="1024" xmlns="http://www.w3.org/2000/svg" xmlns:xlink="http://www.w3.org/1999/xlink"><defs node-id="135"></defs><path d="M 0.00 0.00 L 1024.00 0.00 L 1024.00 1024.00 L 0.00 1024.00 Z" fill="#ffffff" fill-rule="evenodd" id="矩形" node-id="5" stroke="none" target-height="1024" target-width="1024" target-x="0" target-y="0"/><g node-id="137"><path d="M 272.00 384.00 L 265.80 384.90 L 254.00 385.40 L 251.00 386.10 L 247.60 387.20 L 247.90 191.60 L 249.10 191.00 L 377.90 191.00 L 392.60 191.70 L 393.10 192.00 L 393.30 192.50 L 393.00 210.20 L 392.80 210.80 L 392.30 210.90 L 274.10 211.40 L 272.90 211.60 L 272.20 212.30 L 272.00 213.50 L 272.00 384.00 Z" fill="#dfe1ff" fill-rule="nonzero" group-id="1" id="路径" node-id="7" stroke="none" target-height="196.20001" target-width="145.69998" target-x="247.6" target-y="191"/><path d="M 651.90 232.50 L 651.80 230.80 L 652.20 229.20 L 653.10 227.70 L 654.70 225.60 L 654.90 224.90 L 654.70 224.20 L 651.90 221.70 L 650.30 219.60 L 649.10 217.30 L 648.40 214.70 L 648.10 211.20 L 549.70 211.10 L 548.00 193.20 L 548.10 192.40 L 549.20 191.20 L 727.40 191.40 L 729.50 198.40 L 730.00 201.40 L 730.30 238.20 L 730.20 274.30 L 729.30 275.80 L 728.20 276.10 L 726.70 275.20 L 723.50 269.60 L 719.90 264.40 L 716.20 259.60 L 712.10 255.10 L 707.80 251.00 L 703.20 247.20 L 698.30 243.80 L 693.20 240.90 L 687.90 238.30 L 682.40 236.20 L 676.70 234.50 L 670.80 233.30 L 664.80 232.60 L 658.40 232.30 L 651.90 232.50 Z" fill="#f1f1fe" fill-rule="nonzero" group-id="1" id="路径" node-id="8" stroke="none" target-height="84.90001" target-width="182.29999" target-x="548" target-y="191.2"/><path d="M 549.70 211.10 L 648.10 211.20 L 648.40 214.70 L 649.10 217.30 L 650.30 219.60 L 651.90 221.70 L 654.70 224.20 L 654.90 224.90 L 654.70 225.60 L 653.10 227.70 L 652.20 229.20 L 651.80 230.80 L 651.90 232.50 L 645.00 233.60 L 638.50 235.00 L 632.50 236.90 L 626.90 239.30 L 621.40 242.10 L 616.30 245.20 L 611.60 248.70 L 607.30 252.60 L 603.30 256.70 L 599.60 261.10 L 596.40 265.80 L 593.50 270.70 L 591.00 275.80 L 588.90 281.00 L 587.20 286.30 L 585.90 291.80 L 585.00 297.40 L 584.50 303.00 L 584.40 308.60 L 584.70 314.30 L 585.50 319.90 L 586.70 325.40 L 588.30 330.80 L 590.50 336.20 L 593.00 341.30 L 596.00 346.30 L 599.40 351.20 L 603.40 355.80 L 607.70 360.10 L 612.60 364.10 L 618.00 367.90 L 624.00 371.40 L 629.40 374.00 L 635.20 376.20 L 641.40 377.90 L 647.70 379.20 L 654.10 379.90 L 660.70 380.20 L 667.20 379.90 L 673.70 379.00 L 680.10 377.60 L 684.80 376.10 L 689.30 374.30 L 698.70 369.20 L 700.50 369.20 L 702.00 370.10 L 702.80 371.70 L 702.80 372.60 L 702.20 378.60 L 697.50 382.80 L 692.80 386.40 L 688.00 389.30 L 683.10 391.70 L 678.10 393.50 L 672.90 394.80 L 666.60 395.70 L 665.20 396.90 L 663.80 403.10 L 663.50 408.30 L 663.70 413.40 L 664.50 418.40 L 666.00 423.30 L 656.90 422.80 L 640.10 423.20 L 596.30 422.80 L 551.90 423.10 L 550.50 422.50 L 549.90 421.00 L 549.70 211.10 Z" fill="#ced2ff" fill-rule="nonzero" group-id="1" id="路径" node-id="9" stroke="none" target-height="212.19998" target-width="153.09998" target-x="549.7" target-y="211.1"/><path d="M 302.40 251.30 L 297.20 250.90 L 296.80 247.00 L 297.10 246.30 L 297.80 246.00 L 488.30 246.00 L 491.20 246.40 L 492.10 247.00 L 492.60 247.70 L 492.80 248.90 L 492.30 250.70 L 491.90 251.30 L 491.30 251.60 L 478.60 252.20 L 396.40 252.40 L 349.40 252.10 L 302.40 251.30 Z" fill="#ced2ff" fill-rule="nonzero" group-id="1" id="路径" node-id="10" stroke="none" target-height="6.399994" target-width="196" target-x="296.8" target-y="246"/><path d="M 338.40 259.80 L 477.50 259.80 L 478.50 260.20 L 478.90 261.20 L 478.80 264.30 L 478.00 265.10 L 338.40 265.20 L 337.40 264.80 L 337.00 263.80 L 337.10 260.70 L 337.90 259.90 L 338.40 259.80 Z" fill="#797fff" fill-rule="nonzero" group-id="1" id="矩形" node-id="11" stroke="none" target-height="5.4000244" target-width="141.9" target-x="337" target-y="259.8"/><path d="M 694.00 306.10 L 693.60 310.90 L 692.70 315.50 L 691.20 319.80 L 689.10 323.90 L 686.60 327.60 L 683.70 330.90 L 680.30 333.90 L 676.60 336.40 L 672.50 338.50 L 668.20 340.00 L 663.60 340.90 L 658.80 341.20 L 654.20 340.90 L 649.70 340.00 L 645.40 338.60 L 641.20 336.50 L 637.50 334.00 L 633.90 330.90 L 630.90 327.40 L 628.30 323.60 L 626.30 319.50 L 624.90 315.20 L 624.00 310.70 L 623.70 306.10 L 624.00 301.40 L 624.90 297.00 L 626.30 292.60 L 628.30 288.50 L 630.90 284.70 L 633.90 281.20 L 637.50 278.20 L 641.20 275.60 L 645.40 273.60 L 649.70 272.10 L 654.20 271.30 L 658.80 270.90 L 663.60 271.30 L 668.20 272.20 L 672.50 273.70 L 676.60 275.80 L 680.30 278.30 L 683.70 281.20 L 686.60 284.60 L 689.10 288.30 L 691.20 292.40 L 692.70 296.70 L 693.60 301.30 L 694.00 306.10 Z M 661.50 312.00 L 660.70 312.20 L 660.20 311.50 L 660.20 287.10 L 660.00 286.50 L 659.40 286.40 L 655.60 287.20 L 655.60 311.30 L 654.80 311.50 L 654.40 311.30 L 650.70 305.80 L 646.60 308.10 L 646.20 308.70 L 646.40 309.30 L 657.40 320.80 L 657.90 321.10 L 658.40 320.90 L 669.60 310.10 L 669.90 309.50 L 669.60 309.00 L 666.10 306.40 L 665.60 306.70 L 661.50 312.00 Z" fill="#4350fc" fill-rule="nonzero" group-id="1" id="形状" node-id="12" stroke="none" target-height="70.30002" target-width="70.29999" target-x="623.7" target-y="270.9"/><g node-id="138"><path d="M 297.50 275.70 L 402.60 275.50 L 403.10 276.00 L 403.00 291.70 L 297.50 292.10 L 297.00 291.60 L 297.00 276.20 L 297.50 275.70 Z" fill="#797fff" fill-rule="nonzero" group-id="1,2" id="矩形" node-id="13" stroke="none" target-height="16.600006" target-width="106.100006" target-x="297" target-y="275.5"/></g><path d="M 871.70 400.00 L 865.00 392.60 L 861.50 389.80 L 857.90 387.50 L 852.60 385.50 L 849.70 385.10 L 846.80 385.10 L 843.70 385.60 L 840.30 386.70 L 826.30 382.60 L 819.00 377.70 L 815.90 375.10 L 813.10 372.20 L 810.80 369.10 L 808.90 365.70 L 807.80 363.00 L 806.50 356.70 L 806.40 353.10 L 806.70 350.00 L 807.50 346.80 L 811.70 334.30 L 812.20 331.30 L 812.00 328.50 L 810.50 324.20 L 809.30 322.20 L 806.90 319.50 L 804.10 317.10 L 797.60 313.30 L 791.00 310.90 L 787.20 310.20 L 784.30 310.10 L 782.10 310.50 L 780.00 311.40 L 778.30 312.60 L 777.10 314.20 L 775.30 318.20 L 774.20 324.40 L 773.30 335.60 L 768.70 332.20 L 764.90 327.80 L 762.20 322.90 L 760.70 317.70 L 760.60 315.10 L 760.80 312.50 L 761.50 310.00 L 762.70 307.60 L 764.20 305.40 L 766.40 303.40 L 769.70 300.90 L 770.10 296.00 L 770.90 292.20 L 772.20 288.80 L 774.00 285.60 L 776.20 282.90 L 778.80 280.60 L 781.80 278.80 L 785.00 277.60 L 788.60 277.00 L 791.30 276.90 L 797.00 278.00 L 800.10 279.20 L 803.00 280.90 L 805.80 283.00 L 811.70 288.10 L 824.90 286.20 L 828.80 286.20 L 835.40 287.80 L 841.20 290.80 L 844.70 293.50 L 847.70 296.60 L 850.30 300.10 L 852.30 304.10 L 853.80 308.20 L 854.80 312.60 L 855.20 317.50 L 855.00 322.40 L 853.30 336.60 L 852.90 344.00 L 853.70 349.70 L 854.60 352.40 L 856.00 355.10 L 857.80 357.70 L 860.00 360.10 L 863.00 362.60 L 868.30 366.20 L 873.20 371.30 L 875.60 374.70 L 877.30 378.00 L 878.40 381.30 L 878.90 384.70 L 878.90 387.40 L 878.40 390.20 L 877.60 392.90 L 876.20 395.80 L 874.40 398.70 L 873.60 399.30 L 871.70 400.00 Z" fill="#281262" fill-rule="nonzero" group-id="1" id="路径" node-id="14" stroke="none" target-height="123.100006" target-width="118.30005" target-x="760.6" target-y="276.9"/><path d="M 661.50 312.00 L 665.60 306.70 L 666.10 306.40 L 669.60 309.00 L 669.90 309.50 L 669.60 310.10 L 658.40 320.90 L 657.90 321.10 L 657.40 320.80 L 646.40 309.30 L 646.20 308.70 L 646.60 308.10 L 650.70 305.80 L 654.40 311.30 L 654.80 311.50 L 655.60 311.30 L 655.60 287.20 L 659.40 286.40 L 660.00 286.50 L 660.20 287.10 L 660.20 311.50 L 660.70 312.20 L 661.50 312.00 Z" fill="#fdfdfd" fill-rule="nonzero" group-id="1" id="路径" node-id="15" stroke="none" target-height="34.700012" target-width="23.700012" target-x="646.2" target-y="286.4"/><path d="M 220.10 330.70 L 212.60 335.10 L 205.10 335.80 L 198.10 335.90 L 193.40 334.70 L 190.80 333.50 L 190.20 333.40 L 189.60 333.70 L 189.30 334.30 L 189.30 334.90 L 190.30 337.80 L 190.80 340.50 L 190.70 342.90 L 190.10 345.10 L 189.00 347.30 L 187.40 349.30 L 186.20 350.30 L 183.60 351.30 L 181.50 351.60 L 175.40 351.60 L 173.70 351.80 L 172.60 352.50 L 172.00 353.20 L 171.70 355.90 L 172.40 366.00 L 172.50 370.60 L 172.20 374.90 L 170.80 380.50 L 168.10 385.90 L 163.30 391.60 L 159.60 393.00 L 152.80 394.50 L 149.70 394.70 L 145.50 394.30 L 141.70 393.40 L 138.00 392.00 L 134.60 390.00 L 131.40 387.70 L 128.50 384.80 L 123.40 378.20 L 121.20 374.50 L 117.70 366.50 L 116.40 362.30 L 115.40 357.70 L 115.00 353.50 L 115.20 349.80 L 116.00 346.50 L 117.20 343.40 L 119.00 340.60 L 121.30 338.00 L 124.20 335.50 L 126.90 333.90 L 137.10 329.40 L 140.60 327.50 L 143.80 325.30 L 147.80 321.00 L 154.90 310.60 L 157.80 307.20 L 160.90 304.40 L 164.20 302.20 L 167.70 300.50 L 171.60 299.30 L 175.80 298.60 L 181.50 298.90 L 192.60 301.70 L 195.00 302.00 L 199.60 301.70 L 209.70 298.80 L 215.10 298.00 L 219.50 298.70 L 222.10 300.00 L 224.10 301.50 L 225.70 303.20 L 226.90 305.30 L 227.70 307.50 L 228.20 312.40 L 227.60 317.50 L 226.40 321.30 L 224.70 324.80 L 222.50 328.10 L 220.10 330.70 Z" fill="#ff9f00" fill-rule="nonzero" group-id="1" id="路径" node-id="16" stroke="none" target-height="96.70001" target-width="113.2" target-x="115" target-y="298"/><path d="M 454.10 332.00 L 448.40 332.80 L 442.60 333.00 L 436.70 332.60 L 430.60 331.60 L 423.50 329.90 L 422.70 330.30 L 422.30 331.10 L 422.50 333.80 L 422.00 336.30 L 420.90 337.70 L 415.80 341.50 L 414.30 343.10 L 413.00 345.10 L 412.40 346.70 L 412.20 351.60 L 411.20 352.60 L 410.20 352.50 L 409.60 351.80 L 406.40 343.10 L 402.20 341.10 L 402.60 334.90 L 403.50 328.90 L 404.50 325.00 L 405.90 321.50 L 407.50 318.20 L 410.80 314.10 L 415.30 311.00 L 417.70 310.10 L 420.60 309.40 L 424.00 309.10 L 427.80 309.30 L 440.00 312.10 L 443.00 312.40 L 454.00 310.50 L 456.50 310.40 L 459.50 311.20 L 461.80 313.20 L 462.70 314.80 L 463.30 317.00 L 463.60 319.70 L 463.40 322.20 L 462.70 324.40 L 461.50 326.50 L 459.70 328.40 L 457.30 330.30 L 454.10 332.00 Z" fill="#36297e" fill-rule="nonzero" group-id="1" id="路径" node-id="17" stroke="none" target-height="43.5" target-width="61.399994" target-x="402.2" target-y="309.1"/><path d="M 826.30 382.60 L 823.50 391.70 L 822.70 393.20 L 820.40 396.10 L 817.80 398.40 L 815.10 400.20 L 812.10 401.50 L 809.10 402.30 L 806.10 402.70 L 803.10 402.50 L 800.30 401.90 L 797.60 400.70 L 795.20 399.10 L 793.10 397.10 L 791.30 394.40 L 790.40 392.30 L 789.20 387.10 L 789.50 360.70 L 781.40 359.20 L 778.60 357.60 L 777.50 356.40 L 776.70 354.70 L 776.00 352.40 L 775.60 349.00 L 775.60 345.40 L 776.20 341.50 L 779.70 342.30 L 782.60 342.30 L 785.00 341.90 L 787.00 341.00 L 788.70 339.60 L 790.20 337.70 L 791.30 335.20 L 792.20 331.80 L 792.10 331.00 L 791.50 330.60 L 790.90 330.60 L 790.60 331.10 L 789.40 336.00 L 788.50 338.30 L 787.20 340.00 L 786.10 340.80 L 784.40 341.30 L 782.20 341.40 L 780.50 341.10 L 779.20 340.30 L 778.10 338.90 L 777.90 338.10 L 779.00 335.70 L 779.40 334.00 L 779.40 332.20 L 779.00 330.30 L 778.60 329.80 L 778.00 329.70 L 777.10 330.50 L 776.10 341.40 L 774.10 341.10 L 772.30 340.20 L 771.80 339.50 L 771.80 338.70 L 773.30 335.60 L 774.20 324.40 L 775.30 318.20 L 777.10 314.20 L 778.30 312.60 L 780.00 311.40 L 782.10 310.50 L 784.30 310.10 L 787.20 310.20 L 791.00 310.90 L 794.20 311.90 L 800.90 315.00 L 804.10 317.10 L 806.90 319.50 L 809.30 322.20 L 810.50 324.20 L 812.00 328.50 L 812.20 331.30 L 811.70 334.30 L 807.50 346.80 L 806.70 350.00 L 806.40 353.10 L 806.50 356.70 L 807.80 363.00 L 808.90 365.70 L 810.80 369.10 L 813.10 372.20 L 815.90 375.10 L 819.00 377.70 L 826.30 382.60 Z" fill="#ffa3a6" fill-rule="nonzero" group-id="1" id="路径" node-id="18" stroke="none" target-height="92.600006" target-width="54.5" target-x="771.8" target-y="310.1"/><path d="M 297.70 315.40 L 356.80 315.40 L 357.30 315.90 L 357.20 318.00 L 297.70 318.20 L 297.20 317.60 L 297.20 315.90 L 297.70 315.40 Z" fill="#c2c9ff" fill-rule="nonzero" group-id="1" id="矩形" node-id="19" stroke="none" target-height="2.8000183" target-width="60.099976" target-x="297.2" target-y="315.4"/><path d="M 954.50 438.20 L 948.60 437.10 L 943.00 435.40 L 937.70 433.20 L 932.60 430.40 L 928.00 427.20 L 923.70 423.50 L 919.80 419.40 L 916.40 414.90 L 913.40 410.10 L 910.90 405.00 L 909.00 399.60 L 907.50 394.00 L 906.70 388.20 L 906.50 382.30 L 906.90 376.20 L 907.80 371.30 L 909.00 366.60 L 910.60 362.10 L 912.60 357.70 L 914.90 353.50 L 917.70 349.50 L 920.70 345.80 L 924.10 342.30 L 927.80 339.10 L 931.70 336.20 L 935.90 333.80 L 940.20 331.70 L 944.70 330.00 L 949.20 328.70 L 953.90 327.90 L 958.70 327.40 L 963.50 327.30 L 968.30 327.70 L 974.30 328.80 L 979.90 330.50 L 985.20 332.70 L 990.20 335.50 L 994.90 338.70 L 999.20 342.40 L 1003.00 346.50 L 1006.50 351.00 L 1009.50 355.80 L 1011.90 360.90 L 1013.90 366.30 L 1015.30 371.90 L 1016.10 377.70 L 1016.30 383.60 L 1015.90 389.70 L 1015.10 394.60 L 1013.90 399.30 L 1012.30 403.80 L 1010.30 408.20 L 1007.90 412.40 L 1005.20 416.40 L 1002.10 420.10 L 998.80 423.60 L 995.10 426.80 L 991.10 429.60 L 987.00 432.10 L 982.70 434.20 L 978.20 435.90 L 973.60 437.10 L 968.90 438.00 L 964.20 438.50 L 959.40 438.50 L 954.50 438.20 Z M 983.10 344.60 L 975.80 352.10 L 975.60 353.20 L 976.50 353.90 L 981.30 353.90 L 986.10 353.70 L 986.70 353.20 L 986.40 352.40 L 985.20 351.90 L 983.00 351.70 L 982.50 351.10 L 982.40 350.30 L 982.80 349.70 L 989.60 343.20 L 990.10 342.30 L 990.10 341.30 L 989.40 340.50 L 988.40 340.20 L 978.70 340.30 L 977.90 341.40 L 978.10 342.30 L 978.90 342.80 L 982.80 343.70 L 983.30 343.90 L 983.10 344.60 Z M 935.30 373.90 L 988.10 373.90 L 988.90 373.70 L 989.20 372.90 L 989.20 370.90 L 988.30 370.40 L 938.60 369.80 L 937.90 369.60 L 937.30 366.20 L 937.20 359.50 L 938.30 354.30 L 940.40 351.20 L 941.90 350.10 L 943.90 349.50 L 947.30 349.30 L 948.80 348.30 L 949.10 347.60 L 948.90 346.80 L 947.90 346.00 L 944.40 345.80 L 941.70 346.00 L 939.70 346.70 L 937.80 347.90 L 936.40 349.30 L 935.30 351.10 L 934.30 354.20 L 933.70 357.80 L 933.50 361.60 L 933.80 372.40 L 934.30 373.50 L 935.30 373.90 Z M 956.70 383.90 L 944.50 384.00 L 943.80 384.70 L 944.10 413.30 L 945.10 416.20 L 946.00 417.40 L 947.40 418.60 L 948.90 419.40 L 951.10 419.70 L 952.80 419.40 L 954.40 418.50 L 955.70 417.30 L 956.70 415.70 L 957.40 413.80 L 957.60 411.60 L 957.40 384.60 L 956.70 383.90 Z" fill="#dfe1ff" fill-rule="nonzero" group-id="1" id="形状" node-id="20" stroke="none" target-height="111.20001" target-width="109.79999" target-x="906.5" target-y="327.3"/><path d="M 776.20 341.50 L 777.10 330.50 L 777.40 330.00 L 778.60 329.80 L 779.00 330.30 L 779.40 332.20 L 779.40 334.00 L 779.00 335.70 L 777.90 338.10 L 778.10 338.90 L 779.20 340.30 L 780.50 341.10 L 782.20 341.40 L 784.40 341.30 L 786.10 340.80 L 787.20 340.00 L 788.50 338.30 L 789.40 336.00 L 790.60 331.10 L 790.90 330.60 L 791.50 330.60 L 792.10 331.00 L 792.20 331.80 L 791.30 335.20 L 790.20 337.70 L 788.70 339.60 L 787.00 341.00 L 785.00 341.90 L 782.60 342.30 L 779.70 342.30 L 776.20 341.50 Z" fill="#fe506e" fill-rule="nonzero" group-id="1" id="路径" node-id="21" stroke="none" target-height="12.5" target-width="16" target-x="776.2" target-y="329.8"/><path d="M 454.10 332.00 L 453.40 350.90 L 453.30 369.10 L 453.10 372.50 L 452.40 375.60 L 451.40 378.40 L 450.00 380.90 L 448.20 383.30 L 444.30 385.70 L 440.80 387.40 L 437.50 388.50 L 434.30 388.90 L 431.40 388.90 L 428.50 388.30 L 425.70 387.20 L 423.00 385.60 L 420.20 383.30 L 417.50 380.50 L 415.00 377.10 L 412.70 373.20 L 410.70 368.70 L 408.60 362.90 L 406.90 361.40 L 406.20 361.40 L 405.60 361.90 L 401.30 355.30 L 400.20 349.70 L 402.20 341.10 L 406.40 343.10 L 409.60 351.80 L 410.20 352.50 L 411.20 352.60 L 412.20 351.60 L 412.20 348.60 L 413.00 345.10 L 414.30 343.10 L 415.80 341.50 L 420.90 337.70 L 422.00 336.30 L 422.50 333.80 L 422.30 331.10 L 422.70 330.30 L 423.50 329.90 L 430.60 331.60 L 436.70 332.60 L 442.60 333.00 L 448.40 332.80 L 454.10 332.00 Z M 436.40 353.90 L 435.70 350.70 L 435.00 350.30 L 434.50 350.80 L 434.40 352.60 L 434.70 354.20 L 435.20 354.70 L 435.80 354.80 L 436.30 354.50 L 436.40 353.90 Z M 426.20 360.80 L 426.10 363.40 L 426.50 365.60 L 427.30 367.50 L 428.60 369.10 L 430.10 370.30 L 431.90 371.10 L 435.80 371.70 L 437.80 371.40 L 439.80 370.70 L 441.60 369.50 L 443.30 367.90 L 444.70 365.90 L 445.70 363.40 L 446.40 360.20 L 446.30 359.70 L 445.80 359.70 L 445.00 360.90 L 443.10 366.30 L 441.50 368.50 L 439.10 369.90 L 436.90 370.50 L 434.90 370.50 L 433.00 370.00 L 431.30 369.00 L 429.90 367.40 L 428.80 365.60 L 428.10 363.40 L 427.60 360.40 L 426.80 360.30 L 426.20 360.80 Z" fill="#ffa3a6" fill-rule="nonzero" group-id="1" id="形状" node-id="22" stroke="none" target-height="59" target-width="53.899994" target-x="400.2" target-y="329.9"/><path d="M 220.10 330.70 L 219.80 334.00 L 219.00 336.90 L 217.80 339.50 L 216.00 342.00 L 213.70 344.20 L 212.60 335.10 L 220.10 330.70 Z" fill="#ff9743" fill-rule="nonzero" group-id="1" id="路径" node-id="23" stroke="none" target-height="13.5" target-width="7.5" target-x="212.6" target-y="330.7"/><path d="M 212.60 335.10 L 213.70 344.20 L 213.40 346.50 L 213.60 348.70 L 214.30 350.70 L 216.00 353.30 L 216.20 355.80 L 215.80 357.20 L 214.90 358.20 L 212.80 359.50 L 213.00 368.20 L 212.30 372.10 L 210.60 374.80 L 209.30 375.80 L 207.40 376.70 L 205.40 377.30 L 198.60 378.20 L 199.80 396.90 L 200.90 400.20 L 201.50 403.40 L 201.60 406.60 L 201.30 409.80 L 200.60 412.80 L 199.40 415.40 L 197.70 417.80 L 195.60 419.80 L 193.10 421.30 L 191.00 422.00 L 188.60 422.40 L 182.80 422.00 L 177.10 420.00 L 174.90 418.60 L 173.10 417.00 L 171.00 414.50 L 169.30 411.50 L 167.00 404.60 L 166.20 400.80 L 165.60 394.40 L 165.20 393.00 L 164.40 392.10 L 163.30 391.60 L 168.10 385.90 L 169.60 383.30 L 171.70 377.70 L 172.50 370.60 L 171.70 354.30 L 172.60 352.50 L 173.70 351.80 L 183.60 351.30 L 186.20 350.30 L 187.40 349.30 L 189.00 347.30 L 190.10 345.10 L 190.70 342.90 L 190.80 340.50 L 190.30 337.80 L 189.30 334.30 L 189.60 333.70 L 190.20 333.40 L 195.80 335.50 L 198.10 335.90 L 201.60 336.00 L 212.60 335.10 Z" fill="#ffa3a6" fill-rule="nonzero" group-id="1" id="路径" node-id="24" stroke="none" target-height="89" target-width="52.899994" target-x="163.3" target-y="333.4"/><path d="M 982.80 343.70 L 978.40 342.60 L 977.90 341.40 L 978.70 340.30 L 988.40 340.20 L 989.40 340.50 L 990.10 341.30 L 990.10 342.30 L 989.60 343.20 L 982.80 349.70 L 982.40 350.30 L 982.50 351.10 L 983.00 351.70 L 985.20 351.90 L 986.40 352.40 L 986.70 353.20 L 986.50 353.50 L 981.30 353.90 L 975.90 353.70 L 975.60 353.20 L 975.80 352.10 L 983.10 344.60 L 983.30 343.90 L 982.80 343.70 Z" fill="#fe506e" fill-rule="nonzero" group-id="1" id="路径" node-id="25" stroke="none" target-height="13.699982" target-width="14.5" target-x="975.6" target-y="340.2"/><path d="M 935.30 373.90 L 934.30 373.50 L 933.80 372.40 L 933.50 361.60 L 933.70 357.80 L 934.30 354.20 L 935.30 351.10 L 936.40 349.30 L 937.80 347.90 L 939.70 346.70 L 941.70 346.00 L 944.40 345.80 L 947.90 346.00 L 948.90 346.80 L 949.10 347.60 L 948.80 348.30 L 947.30 349.30 L 943.90 349.50 L 941.90 350.10 L 940.40 351.20 L 938.30 354.30 L 937.20 359.50 L 937.30 366.20 L 937.90 369.60 L 938.60 369.80 L 988.30 370.40 L 989.20 370.90 L 989.20 372.90 L 988.90 373.70 L 988.10 373.90 L 935.30 373.90 Z" fill="#f53f5a" fill-rule="nonzero" group-id="1" id="路径" node-id="26" stroke="none" target-height="28.100006" target-width="55.700012" target-x="933.5" target-y="345.8"/><path d="M 298.40 349.00 L 318.80 349.00 L 319.30 349.30 L 319.50 349.80 L 319.30 351.20 L 318.80 351.40 L 298.40 351.40 L 297.90 351.20 L 297.70 350.70 L 297.90 349.30 L 298.40 349.00 Z" fill="#dfe1ff" fill-rule="nonzero" group-id="1" id="矩形" node-id="27" stroke="none" target-height="2.399994" target-width="21.799988" target-x="297.7" target-y="349"/><path d="M 364.30 349.60 L 364.20 351.50 L 364.30 351.00 L 329.50 351.30 L 328.90 351.00 L 328.50 350.00 L 328.70 349.40 L 329.30 349.20 L 364.30 349.60 Z" fill="#ced2ff" fill-rule="nonzero" group-id="1" id="路径" node-id="28" stroke="none" target-height="2.2999878" target-width="35.799988" target-x="328.5" target-y="349.2"/><path d="M 400.20 349.70 L 401.30 355.30 L 389.00 355.50 L 365.00 354.90 L 364.50 354.60 L 364.20 353.50 L 364.30 349.60 L 400.20 349.70 Z" fill="#797fff" fill-rule="nonzero" group-id="1" id="路径" node-id="29" stroke="none" target-height="5.899994" target-width="37.099976" target-x="364.2" target-y="349.6"/><path d="M 434.70 354.20 L 434.40 352.60 L 434.50 350.80 L 435.00 350.30 L 435.40 350.40 L 436.40 353.90 L 436.30 354.50 L 435.80 354.80 L 435.20 354.70 L 434.70 354.20 Z" fill="#811935" fill-rule="nonzero" group-id="1" id="路径" node-id="30" stroke="none" target-height="4.5" target-width="2" target-x="434.4" target-y="350.3"/><path d="M 446.40 360.20 L 445.70 363.40 L 444.70 365.90 L 443.30 367.90 L 441.60 369.50 L 439.80 370.70 L 437.80 371.40 L 433.80 371.60 L 431.90 371.10 L 430.10 370.30 L 428.60 369.10 L 427.30 367.50 L 426.50 365.60 L 426.10 363.40 L 426.20 360.80 L 426.80 360.30 L 427.60 360.40 L 428.10 363.40 L 428.80 365.60 L 429.90 367.40 L 431.30 369.00 L 433.00 370.00 L 434.90 370.50 L 436.90 370.50 L 439.10 369.90 L 441.50 368.50 L 442.40 367.60 L 443.10 366.30 L 445.50 360.00 L 445.80 359.70 L 446.30 359.70 L 446.40 360.20 Z" fill="#ff7c90" fill-rule="nonzero" group-id="1" id="路径" node-id="31" stroke="none" target-height="11.899994" target-width="20.299988" target-x="426.1" target-y="359.7"/><path d="M 448.20 383.30 L 447.70 389.40 L 448.00 390.70 L 448.40 391.40 L 449.10 391.70 L 447.90 396.60 L 446.50 405.40 L 445.30 408.20 L 443.70 410.60 L 441.60 412.60 L 439.10 414.30 L 436.30 415.60 L 433.40 416.40 L 430.20 417.00 L 426.90 417.10 L 420.30 416.20 L 413.80 413.90 L 410.90 412.20 L 408.20 410.10 L 405.90 407.70 L 403.90 405.00 L 402.30 401.90 L 401.30 398.60 L 400.80 394.90 L 400.90 390.70 L 402.70 383.50 L 404.10 376.30 L 405.00 369.10 L 405.60 361.90 L 406.20 361.40 L 407.50 361.70 L 408.60 362.90 L 410.70 368.70 L 412.70 373.20 L 415.00 377.10 L 417.50 380.50 L 420.20 383.30 L 423.00 385.60 L 425.70 387.20 L 428.50 388.30 L 431.40 388.90 L 434.30 388.90 L 437.50 388.50 L 440.80 387.40 L 444.30 385.70 L 448.20 383.30 Z" fill="#ff7c90" fill-rule="nonzero" group-id="1" id="路径" node-id="32" stroke="none" target-height="55.700012" target-width="48.30002" target-x="400.8" target-y="361.4"/><g node-id="139"><path d="M 297.80 362.00 L 355.60 361.80 L 356.20 362.00 L 356.50 362.70 L 356.50 370.80 L 356.30 371.40 L 355.60 371.70 L 297.80 371.90 L 297.10 371.60 L 296.90 371.00 L 296.80 362.90 L 297.10 362.30 L 297.80 362.00 Z" fill="#ced2ff" fill-rule="nonzero" group-id="1,3" id="矩形" node-id="33" stroke="none" target-height="10.100006" target-width="59.700012" target-x="296.8" target-y="361.8"/></g><path d="M 97.00 461.00 L 95.60 462.10 L 94.70 462.40 L 94.20 462.10 L 93.70 461.20 L 93.60 459.20 L 93.90 455.20 L 93.60 453.90 L 90.50 449.50 L 87.30 446.50 L 85.70 444.60 L 84.20 441.40 L 84.60 439.60 L 91.60 432.80 L 97.10 426.20 L 99.00 422.40 L 98.90 420.80 L 97.90 421.00 L 94.10 426.10 L 90.00 430.80 L 85.70 435.20 L 81.00 439.10 L 75.90 442.70 L 70.50 445.90 L 64.80 448.70 L 63.50 448.60 L 63.10 447.40 L 67.00 430.70 L 67.00 428.60 L 66.20 428.30 L 65.60 430.30 L 64.10 432.70 L 62.00 442.20 L 60.50 451.70 L 59.40 461.40 L 58.60 462.30 L 57.50 461.90 L 53.50 455.60 L 49.90 449.50 L 45.90 441.10 L 42.90 432.30 L 41.20 421.90 L 40.70 421.60 L 39.80 422.10 L 39.40 423.60 L 39.40 425.90 L 40.30 431.20 L 43.20 440.50 L 43.20 441.30 L 42.70 442.00 L 41.90 442.20 L 41.20 442.00 L 37.20 439.00 L 33.40 435.80 L 32.60 434.50 L 30.60 429.40 L 27.60 425.50 L 20.10 420.00 L 17.20 417.40 L 23.40 414.60 L 30.50 412.20 L 41.70 409.10 L 44.50 407.60 L 47.70 404.70 L 54.90 394.00 L 61.40 386.10 L 65.10 382.40 L 69.80 378.70 L 72.70 376.90 L 75.90 375.50 L 79.40 374.40 L 82.90 373.70 L 86.40 373.50 L 89.90 373.70 L 93.40 374.50 L 96.50 375.70 L 99.50 377.40 L 101.40 379.00 L 104.60 383.20 L 105.90 385.90 L 106.80 388.90 L 107.70 396.70 L 107.60 402.00 L 106.70 414.00 L 105.10 425.80 L 103.00 437.60 L 100.30 449.30 L 97.00 461.00 Z" fill="#00be7b" fill-rule="nonzero" group-id="1" id="路径" node-id="34" stroke="none" target-height="88.899994" target-width="90.5" target-x="17.2" target-y="373.5"/><path d="M 702.20 378.60 L 703.00 383.40 L 703.40 387.80 L 703.30 392.00 L 702.90 395.80 L 701.90 399.70 L 700.70 403.40 L 697.10 410.20 L 694.10 414.30 L 690.60 418.20 L 686.50 421.80 L 677.50 428.20 L 672.50 431.00 L 672.00 431.20 L 670.90 430.90 L 666.00 423.30 L 664.50 418.40 L 663.70 413.40 L 663.50 408.30 L 663.80 403.10 L 664.80 397.80 L 665.20 396.90 L 666.60 395.70 L 672.90 394.80 L 678.10 393.50 L 683.10 391.70 L 688.00 389.30 L 692.80 386.40 L 697.50 382.80 L 702.20 378.60 Z" fill="#00ca8e" fill-rule="nonzero" group-id="1" id="路径" node-id="35" stroke="none" target-height="52.600006" target-width="39.900024" target-x="663.5" target-y="378.6"/><path d="M 826.30 382.60 L 840.30 386.70 L 836.30 391.30 L 832.90 396.20 L 830.00 401.40 L 827.70 406.80 L 825.90 412.60 L 824.60 418.70 L 823.90 425.20 L 822.80 442.00 L 822.00 450.30 L 820.80 458.30 L 819.70 463.60 L 816.50 473.50 L 814.30 478.20 L 811.50 482.70 L 808.20 486.90 L 802.30 492.70 L 794.50 498.00 L 775.30 507.30 L 772.20 509.60 L 769.10 498.10 L 767.60 486.40 L 766.60 474.80 L 766.10 463.20 L 766.10 451.50 L 766.60 439.90 L 767.50 428.20 L 769.00 416.50 L 771.00 404.80 L 771.10 403.50 L 770.70 402.60 L 770.10 402.00 L 768.90 401.50 L 771.10 396.50 L 773.30 392.30 L 775.00 389.90 L 777.00 387.80 L 779.30 386.20 L 781.80 385.00 L 785.10 384.20 L 789.20 383.90 L 789.20 387.10 L 790.40 392.30 L 791.30 394.40 L 793.10 397.10 L 795.20 399.10 L 797.60 400.70 L 800.30 401.90 L 803.10 402.50 L 806.10 402.70 L 809.10 402.30 L 812.10 401.50 L 815.10 400.20 L 817.80 398.40 L 820.40 396.10 L 822.70 393.20 L 824.60 388.40 L 826.30 382.60 Z" fill="#00a770" fill-rule="nonzero" group-id="1" id="路径" node-id="36" stroke="none" target-height="127" target-width="74.20001" target-x="766.1" target-y="382.6"/><path d="M 272.00 384.00 L 271.90 487.80 L 272.20 488.50 L 272.90 488.80 L 284.70 488.90 L 296.90 489.50 L 309.60 490.70 L 302.80 498.60 L 299.00 505.10 L 298.40 505.70 L 297.70 505.90 L 285.10 505.40 L 276.80 504.40 L 268.60 503.00 L 260.20 501.20 L 251.90 498.90 L 251.00 498.30 L 250.40 497.40 L 250.00 495.90 L 249.80 493.40 L 250.20 478.90 L 249.90 475.40 L 249.40 473.10 L 247.80 469.50 L 247.60 387.20 L 251.00 386.10 L 254.00 385.40 L 265.80 384.90 L 272.00 384.00 Z" fill="#ced2ff" fill-rule="nonzero" group-id="1" id="路径" node-id="37" stroke="none" target-height="121.899994" target-width="62" target-x="247.6" target-y="384"/><path d="M 956.70 383.90 L 957.40 384.60 L 957.60 411.60 L 957.40 413.80 L 956.70 415.70 L 955.70 417.30 L 954.40 418.50 L 952.80 419.40 L 951.10 419.70 L 948.90 419.40 L 947.40 418.60 L 946.00 417.40 L 945.10 416.20 L 944.10 413.30 L 943.80 384.70 L 944.00 384.20 L 944.50 384.00 L 956.70 383.90 Z" fill="#5a67ff" fill-rule="nonzero" group-id="1" id="路径" node-id="38" stroke="none" target-height="35.80002" target-width="13.799988" target-x="943.8" target-y="383.9"/><path d="M 871.00 399.50 L 869.10 406.40 L 868.90 408.80 L 869.50 418.70 L 869.30 427.20 L 867.70 444.70 L 866.40 453.40 L 864.50 461.90 L 862.20 470.40 L 859.30 478.60 L 855.90 486.50 L 852.00 494.00 L 848.70 499.40 L 844.90 504.50 L 840.90 509.30 L 836.40 513.90 L 831.70 518.00 L 826.40 521.80 L 820.80 525.20 L 814.60 528.30 L 813.20 528.10 L 812.10 527.50 L 811.00 526.50 L 809.00 522.10 L 807.40 521.10 L 807.00 520.30 L 807.10 518.50 L 806.80 517.70 L 794.50 498.00 L 802.30 492.70 L 808.20 486.90 L 811.50 482.70 L 814.30 478.20 L 816.50 473.50 L 818.30 468.60 L 820.80 458.30 L 822.00 450.30 L 823.90 425.20 L 824.60 418.70 L 825.90 412.60 L 827.70 406.80 L 830.00 401.40 L 832.90 396.20 L 836.30 391.30 L 840.30 386.70 L 843.70 385.60 L 846.80 385.10 L 849.70 385.10 L 852.60 385.50 L 855.30 386.30 L 857.90 387.50 L 861.50 389.80 L 865.00 392.60 L 871.00 399.50 Z" fill="#00db84" fill-rule="nonzero" group-id="1" id="路径" node-id="39" stroke="none" target-height="143.19998" target-width="76.5" target-x="794.5" target-y="385.1"/><path d="M 400.70 389.80 L 384.60 394.60 L 297.70 394.20 L 297.10 394.00 L 296.80 393.40 L 296.80 390.50 L 297.10 389.80 L 297.70 389.60 L 400.70 389.80 Z" fill="#797fff" fill-rule="nonzero" group-id="1" id="路径" node-id="40" stroke="none" target-height="5" target-width="103.900024" target-x="296.8" target-y="389.6"/><path d="M 400.70 389.80 L 400.90 390.70 L 400.80 394.90 L 401.30 398.60 L 402.30 401.90 L 403.90 405.00 L 405.90 407.70 L 408.20 410.10 L 410.90 412.20 L 413.80 413.90 L 417.00 415.20 L 423.60 416.80 L 430.20 417.00 L 436.30 415.60 L 439.10 414.30 L 441.60 412.60 L 443.70 410.60 L 445.30 408.20 L 446.50 405.40 L 447.90 396.60 L 449.10 391.70 L 455.20 393.10 L 461.00 394.90 L 466.50 397.00 L 471.70 399.50 L 476.70 402.30 L 482.70 406.30 L 488.20 410.80 L 493.40 415.80 L 498.10 421.20 L 502.40 427.00 L 506.30 433.30 L 509.70 439.90 L 512.70 447.10 L 462.10 447.30 L 460.20 447.50 L 458.90 448.30 L 458.00 449.40 L 457.40 451.10 L 446.70 506.70 L 436.90 506.60 L 436.30 506.80 L 436.00 507.50 L 436.10 509.90 L 436.60 512.00 L 437.60 514.00 L 439.40 516.30 L 439.10 517.30 L 427.00 518.60 L 426.30 518.80 L 425.80 519.40 L 424.40 523.00 L 423.50 526.60 L 423.10 530.30 L 423.30 534.00 L 424.00 537.90 L 359.40 537.80 L 357.50 536.40 L 352.60 530.60 L 350.40 527.20 L 347.70 521.80 L 345.30 515.90 L 343.50 509.80 L 341.10 497.80 L 340.60 492.30 L 340.20 482.70 L 340.40 473.20 L 341.10 463.70 L 342.50 454.20 L 344.30 444.80 L 346.80 435.40 L 349.80 426.00 L 353.30 419.60 L 364.80 406.10 L 368.10 403.80 L 370.20 401.40 L 384.60 394.60 L 400.70 389.80 Z M 393.00 492.00 L 394.60 496.20 L 396.80 500.00 L 399.40 503.40 L 402.40 506.40 L 405.80 509.10 L 409.70 511.40 L 410.60 511.60 L 406.40 506.00 L 403.10 501.10 L 400.20 495.90 L 397.80 490.70 L 395.20 483.40 L 393.00 476.00 L 391.40 468.30 L 389.50 452.70 L 389.00 444.90 L 388.70 444.80 L 388.00 453.00 L 387.80 461.00 L 388.20 468.90 L 389.20 476.60 L 390.80 484.40 L 393.00 492.00 Z" fill="#36297e" fill-rule="nonzero" group-id="1" id="形状" node-id="41" stroke="none" target-height="148.10004" target-width="172.5" target-x="340.2" target-y="389.8"/><path d="M 165.70 396.60 L 166.20 400.80 L 167.90 408.20 L 169.30 411.50 L 171.00 414.50 L 173.10 417.00 L 177.10 420.00 L 182.80 422.00 L 185.90 422.40 L 188.60 422.40 L 193.10 421.30 L 195.60 419.80 L 197.70 417.80 L 199.40 415.40 L 200.60 412.80 L 201.30 409.80 L 201.60 406.60 L 201.50 403.40 L 200.90 400.20 L 199.80 396.90 L 206.40 397.10 L 208.80 397.80 L 213.20 400.00 L 214.90 401.60 L 217.20 404.40 L 219.10 407.80 L 227.00 428.00 L 237.10 451.70 L 235.50 453.90 L 235.50 454.70 L 237.10 462.40 L 238.20 470.20 L 238.80 478.10 L 238.90 485.90 L 238.30 494.40 L 237.50 494.50 L 230.10 491.00 L 222.90 487.20 L 216.00 482.90 L 202.40 473.20 L 201.10 476.20 L 199.80 477.70 L 201.20 480.90 L 201.60 483.00 L 201.70 489.30 L 203.00 498.20 L 203.60 504.70 L 203.70 511.20 L 203.20 517.70 L 202.30 524.10 L 195.80 521.40 L 189.30 518.10 L 182.80 514.30 L 176.40 510.20 L 164.10 500.90 L 152.70 490.30 L 142.40 478.60 L 137.80 472.50 L 133.60 466.30 L 129.80 459.80 L 126.50 453.40 L 122.10 443.30 L 120.10 440.20 L 117.90 437.60 L 120.70 428.00 L 124.20 420.40 L 128.80 413.80 L 134.20 408.60 L 138.30 405.70 L 142.90 403.20 L 148.00 401.10 L 159.10 397.80 L 165.70 396.60 Z" fill="#fe506e" fill-rule="nonzero" group-id="1" id="路径" node-id="42" stroke="none" target-height="127.49997" target-width="120.99999" target-x="117.9" target-y="396.6"/><path d="M 871.00 399.50 L 871.70 399.80 L 871.70 401.00 L 876.30 410.70 L 880.80 421.40 L 885.00 433.00 L 889.00 445.60 L 893.40 461.60 L 897.30 477.40 L 900.70 493.00 L 903.50 508.60 L 905.90 524.00 L 907.70 539.30 L 909.10 554.50 L 908.70 558.80 L 906.40 563.80 L 901.90 566.40 L 897.40 568.30 L 892.70 569.70 L 887.90 570.50 L 883.00 570.90 L 878.10 570.90 L 870.70 570.20 L 863.20 568.90 L 848.70 565.30 L 847.90 557.70 L 847.80 557.50 L 846.60 557.50 L 846.40 557.20 L 845.90 552.70 L 846.40 552.10 L 848.10 551.70 L 848.40 550.90 L 846.90 530.80 L 846.60 530.10 L 845.00 529.10 L 844.60 528.40 L 844.50 527.50 L 845.30 524.70 L 845.30 523.20 L 844.70 521.50 L 843.40 519.20 L 844.00 517.10 L 848.90 510.90 L 853.40 504.30 L 857.40 497.50 L 860.90 490.30 L 863.90 482.80 L 866.40 475.00 L 868.50 466.80 L 870.00 458.10 L 871.00 449.50 L 871.40 441.30 L 871.30 433.40 L 870.70 425.90 L 869.50 418.70 L 868.90 408.80 L 869.10 406.40 L 871.00 399.50 Z" fill="#00be7b" fill-rule="nonzero" group-id="1" id="路径" node-id="43" stroke="none" target-height="171.40002" target-width="65.69995" target-x="843.4" target-y="399.5"/><path d="M 370.20 401.40 L 368.10 403.80 L 364.80 406.10 L 338.60 405.70 L 337.30 404.90 L 337.00 402.80 L 337.30 401.90 L 370.20 401.40 Z" fill="#797fff" fill-rule="nonzero" group-id="1" id="路径" node-id="44" stroke="none" target-height="4.700012" target-width="33.200012" target-x="337" target-y="401.4"/><path d="M 768.90 401.50 L 770.10 402.00 L 770.70 402.60 L 771.10 403.50 L 771.00 404.80 L 769.00 416.50 L 767.60 428.20 L 766.60 439.90 L 766.10 451.50 L 766.10 463.20 L 766.60 474.80 L 767.60 486.40 L 769.10 498.10 L 764.30 502.10 L 758.80 505.90 L 752.80 509.30 L 749.40 506.00 L 745.80 503.10 L 741.90 500.50 L 737.60 498.30 L 733.00 496.50 L 727.30 495.00 L 726.70 495.40 L 726.40 496.70 L 727.60 499.70 L 729.20 502.30 L 731.80 505.20 L 731.60 506.40 L 725.00 509.40 L 714.40 511.00 L 715.70 500.20 L 715.30 498.90 L 714.00 498.50 L 708.90 498.60 L 704.00 498.10 L 699.30 497.10 L 694.80 495.60 L 690.60 493.50 L 686.40 490.80 L 682.40 487.50 L 700.20 483.40 L 711.60 479.50 L 717.20 476.80 L 722.10 473.80 L 726.80 470.30 L 731.40 466.10 L 739.60 456.60 L 743.50 451.30 L 748.80 443.00 L 753.70 434.40 L 758.20 425.60 L 768.90 401.50 Z" fill="#007d5b" fill-rule="nonzero" group-id="1" id="路径" node-id="45" stroke="none" target-height="109.5" target-width="88.69995" target-x="682.4" target-y="401.5"/><path d="M 353.30 419.60 L 349.80 426.00 L 297.70 426.00 L 297.10 425.80 L 296.80 425.20 L 296.80 415.80 L 297.10 415.10 L 297.70 414.90 L 321.60 415.30 L 345.40 415.20 L 347.70 415.40 L 351.60 416.20 L 352.10 416.60 L 351.70 419.30 L 351.90 419.60 L 353.30 419.60 Z" fill="#ced2ff" fill-rule="nonzero" group-id="1" id="路径" node-id="46" stroke="none" target-height="11.100006" target-width="56.5" target-x="296.8" target-y="414.9"/><path d="M 17.20 417.40 L 20.10 420.00 L 27.60 425.50 L 30.60 429.40 L 32.60 434.50 L 33.40 435.80 L 37.20 439.00 L 41.20 442.00 L 41.90 442.20 L 42.70 442.00 L 43.20 441.30 L 43.20 440.50 L 40.30 431.20 L 39.40 425.90 L 39.40 423.60 L 39.80 422.10 L 40.20 421.70 L 41.20 421.90 L 42.90 432.30 L 45.90 441.10 L 49.90 449.50 L 53.50 455.60 L 57.50 461.90 L 58.60 462.30 L 59.40 461.40 L 60.50 451.70 L 62.00 442.20 L 64.10 432.70 L 65.60 430.30 L 66.20 428.30 L 67.00 428.60 L 67.00 430.70 L 63.10 447.40 L 63.50 448.60 L 64.80 448.70 L 70.50 445.90 L 75.90 442.70 L 81.00 439.10 L 85.70 435.20 L 90.00 430.80 L 94.10 426.10 L 97.90 421.00 L 98.50 420.70 L 99.10 421.20 L 99.00 422.40 L 98.30 424.30 L 95.40 428.40 L 91.60 432.80 L 85.20 438.90 L 84.20 440.50 L 84.40 442.40 L 85.70 444.60 L 87.30 446.50 L 90.50 449.50 L 93.90 454.50 L 93.60 459.20 L 93.70 461.20 L 94.20 462.10 L 94.70 462.40 L 95.60 462.10 L 97.00 461.00 L 91.80 479.70 L 88.70 482.40 L 85.80 485.30 L 83.40 488.50 L 81.20 491.90 L 78.70 496.80 L 76.70 502.00 L 75.00 507.50 L 73.20 516.00 L 71.90 524.70 L 71.00 533.50 L 69.10 561.90 L 68.40 582.40 L 67.80 582.10 L 67.30 580.90 L 66.70 570.80 L 65.90 566.80 L 64.70 563.00 L 64.30 556.00 L 63.50 549.20 L 62.10 542.70 L 60.30 536.50 L 58.00 530.40 L 55.20 524.60 L 51.90 518.90 L 48.70 514.40 L 44.90 509.70 L 36.30 500.60 L 22.80 487.30 L 15.40 479.20 L 9.50 470.70 L 7.10 466.10 L 5.00 461.60 L 3.40 456.90 L 2.30 452.10 L 1.80 447.40 L 1.80 442.70 L 2.30 439.30 L 3.10 435.90 L 4.30 432.50 L 6.00 429.20 L 8.00 426.20 L 10.40 423.20 L 13.50 420.20 L 17.20 417.40 Z" fill="#00a770" fill-rule="nonzero" group-id="1" id="路径" node-id="47" stroke="none" target-height="165.00003" target-width="97.299995" target-x="1.8" target-y="417.4"/><path d="M 869.50 418.70 L 870.70 425.90 L 871.30 433.40 L 871.40 441.30 L 871.00 449.50 L 870.00 458.10 L 868.50 466.80 L 866.40 475.00 L 863.90 482.80 L 860.90 490.30 L 857.40 497.50 L 853.40 504.30 L 848.90 510.90 L 844.00 517.10 L 838.90 521.50 L 833.70 525.50 L 828.10 529.10 L 822.30 532.30 L 816.10 535.10 L 809.70 537.60 L 787.70 538.20 L 769.00 538.30 L 768.00 538.10 L 767.20 537.10 L 767.30 536.10 L 786.30 533.10 L 789.10 533.80 L 792.20 534.00 L 795.50 533.90 L 800.50 533.10 L 810.30 530.00 L 814.60 528.30 L 820.80 525.20 L 826.40 521.80 L 831.70 518.00 L 836.40 513.90 L 840.90 509.30 L 844.90 504.50 L 848.70 499.40 L 852.00 494.00 L 855.90 486.50 L 859.30 478.60 L 862.20 470.40 L 864.50 461.90 L 866.40 453.40 L 867.70 444.70 L 868.70 435.90 L 869.50 418.70 Z" fill="#007d5b" fill-rule="nonzero" group-id="1" id="路径" node-id="48" stroke="none" target-height="119.599976" target-width="104.20001" target-x="767.2" target-y="418.7"/><path d="M 117.90 437.60 L 120.10 440.20 L 122.10 443.30 L 126.50 453.40 L 129.80 459.80 L 133.60 466.30 L 137.80 472.50 L 142.40 478.60 L 147.40 484.60 L 158.30 495.70 L 164.10 500.90 L 176.40 510.20 L 182.80 514.30 L 189.30 518.10 L 195.80 521.40 L 202.30 524.10 L 227.10 531.40 L 227.30 533.60 L 226.50 533.90 L 218.10 532.90 L 210.00 531.30 L 202.30 529.30 L 194.90 526.90 L 187.90 523.90 L 181.10 520.60 L 174.60 516.70 L 168.30 512.40 L 162.30 507.60 L 156.50 502.30 L 150.90 496.40 L 145.60 490.00 L 144.80 489.20 L 143.20 489.10 L 142.30 489.60 L 141.50 490.60 L 141.30 493.10 L 142.60 497.60 L 142.60 501.80 L 144.50 510.80 L 147.50 532.40 L 149.50 543.60 L 149.90 547.50 L 149.80 551.60 L 149.60 551.90 L 148.50 552.10 L 148.40 552.50 L 150.50 564.90 L 150.70 572.10 L 151.10 574.60 L 152.20 577.30 L 152.60 577.70 L 155.00 575.60 L 155.70 575.80 L 156.00 576.30 L 156.10 577.10 L 149.50 580.00 L 143.00 582.40 L 136.50 584.40 L 130.00 585.90 L 123.40 587.00 L 116.70 587.50 L 109.80 587.60 L 102.70 587.20 L 100.20 586.40 L 98.50 583.60 L 98.00 579.30 L 98.60 561.50 L 99.70 543.80 L 101.40 526.10 L 103.60 508.40 L 106.30 490.70 L 109.60 473.00 L 113.50 455.30 L 117.90 437.60 Z" fill="#f53f5a" fill-rule="nonzero" group-id="1" id="路径" node-id="49" stroke="none" target-height="149.99997" target-width="129.3" target-x="98" target-y="437.6"/><path d="M 409.70 511.40 L 405.80 509.10 L 402.40 506.40 L 399.40 503.40 L 396.80 500.00 L 394.60 496.20 L 393.00 492.00 L 390.80 484.40 L 389.20 476.60 L 388.20 468.90 L 387.80 461.00 L 388.00 453.00 L 388.80 444.70 L 390.30 460.60 L 391.40 468.30 L 393.00 476.00 L 395.20 483.40 L 397.80 490.70 L 400.20 495.90 L 403.10 501.10 L 406.40 506.00 L 410.60 511.60 L 409.70 511.40 Z" fill="#281262" fill-rule="nonzero" group-id="1" id="路径" node-id="50" stroke="none" target-height="66.899994" target-width="22.800018" target-x="387.8" target-y="444.7"/><path d="M 512.70 447.10 L 569.70 446.80 L 571.10 446.90 L 572.10 447.40 L 572.60 448.00 L 572.70 450.50 L 553.40 538.10 L 440.60 537.90 L 457.40 451.10 L 458.00 449.40 L 458.90 448.30 L 460.20 447.50 L 462.10 447.30 L 512.70 447.10 Z M 502.20 501.50 L 505.00 502.60 L 508.10 502.30 L 511.30 500.80 L 513.80 498.20 L 515.10 496.00 L 515.80 493.70 L 516.00 491.50 L 515.10 488.20 L 513.40 486.20 L 510.60 485.10 L 507.40 485.30 L 504.30 486.80 L 501.70 489.40 L 500.50 491.60 L 499.80 493.90 L 499.60 496.10 L 500.50 499.50 L 502.20 501.50 Z" fill="#8b9af6" fill-rule="nonzero" group-id="1" id="形状" node-id="51" stroke="none" target-height="91.29999" target-width="132.1" target-x="440.6" target-y="446.8"/><path d="M 671.30 485.40 L 690.30 530.30 L 691.10 531.50 L 692.10 532.50 L 693.40 533.10 L 694.90 533.30 L 727.40 533.10 L 734.90 537.40 L 631.50 538.00 L 616.60 508.20 L 602.40 478.60 L 589.00 449.20 L 589.10 447.90 L 590.20 447.30 L 653.20 447.50 L 655.50 449.00 L 656.20 450.20 L 671.30 485.40 Z M 642.40 501.20 L 642.90 500.50 L 643.20 499.30 L 642.90 497.30 L 641.80 494.10 L 639.90 490.70 L 636.60 486.70 L 633.50 484.40 L 632.10 484.10 L 631.10 484.40 L 630.60 485.10 L 630.30 486.30 L 630.50 488.30 L 631.70 491.50 L 633.60 494.90 L 635.20 497.10 L 638.60 500.30 L 640.00 501.20 L 641.40 501.50 L 642.40 501.20 Z" fill="#8b9af6" fill-rule="nonzero" group-id="1" id="形状" node-id="52" stroke="none" target-height="90.70001" target-width="145.90002" target-x="589" target-y="447.3"/><path d="M 237.10 451.70 L 247.80 469.50 L 249.40 473.10 L 250.20 478.90 L 249.80 493.40 L 250.00 495.90 L 250.40 497.40 L 251.00 498.30 L 251.90 498.90 L 260.20 501.20 L 268.60 503.00 L 276.80 504.40 L 285.10 505.40 L 293.30 505.90 L 292.40 515.00 L 292.10 524.20 L 292.20 533.50 L 284.70 534.00 L 249.90 533.90 L 232.70 533.20 L 229.20 531.70 L 227.10 531.40 L 202.30 524.10 L 203.20 517.70 L 203.70 511.20 L 203.60 504.70 L 203.00 498.20 L 201.70 489.30 L 201.60 483.00 L 201.20 480.90 L 199.80 477.70 L 201.10 476.20 L 202.40 473.20 L 216.00 482.90 L 222.90 487.20 L 230.10 491.00 L 237.50 494.50 L 238.30 494.40 L 238.90 485.90 L 238.80 478.10 L 238.20 470.20 L 237.10 462.40 L 235.50 454.70 L 235.50 453.90 L 237.10 451.70 Z" fill="#ff7c90" fill-rule="nonzero" group-id="1" id="路径" node-id="53" stroke="none" target-height="82.29999" target-width="93.499985" target-x="199.8" target-y="451.7"/><path d="M 292.20 533.50 L 292.10 524.20 L 292.40 515.00 L 293.30 505.90 L 298.40 505.70 L 302.80 498.60 L 309.60 490.70 L 330.40 477.50 L 330.90 477.60 L 331.50 478.30 L 331.70 480.10 L 331.40 482.10 L 330.70 484.00 L 327.80 490.20 L 329.70 492.00 L 330.40 493.10 L 330.50 494.40 L 330.20 495.70 L 328.80 498.10 L 331.60 501.00 L 333.40 503.40 L 334.60 505.80 L 335.30 508.50 L 335.60 511.10 L 335.50 513.70 L 334.90 516.30 L 332.60 521.20 L 329.00 525.40 L 326.70 527.10 L 324.20 528.60 L 321.50 529.70 L 318.50 530.40 L 310.00 531.80 L 292.20 533.50 Z" fill="#ffa3a6" fill-rule="nonzero" group-id="1" id="路径" node-id="54" stroke="none" target-height="56" target-width="43.5" target-x="292.1" target-y="477.5"/><path d="M 76.40 586.50 L 62.70 586.40 L 60.50 580.80 L 57.70 575.20 L 48.10 558.40 L 43.20 548.80 L 40.50 540.90 L 39.60 536.80 L 39.20 532.60 L 39.20 528.30 L 39.50 527.70 L 40.20 527.40 L 43.40 527.90 L 46.20 528.90 L 48.80 530.30 L 53.20 534.20 L 55.10 536.70 L 57.60 540.70 L 59.70 545.10 L 62.80 554.30 L 66.70 570.80 L 67.30 580.90 L 67.80 582.10 L 68.40 582.40 L 69.10 561.90 L 70.30 542.00 L 71.90 524.70 L 73.20 516.00 L 75.00 507.50 L 76.70 502.00 L 78.70 496.80 L 81.20 491.90 L 83.40 488.50 L 85.80 485.30 L 88.70 482.40 L 91.80 479.70 L 94.90 479.00 L 97.00 478.90 L 98.50 479.20 L 99.80 479.90 L 100.70 480.90 L 101.20 482.30 L 101.40 484.80 L 100.90 488.00 L 100.00 491.30 L 95.50 502.00 L 87.50 517.70 L 82.20 530.90 L 80.00 537.70 L 76.60 551.50 L 75.50 558.60 L 74.90 565.60 L 74.70 572.60 L 75.00 573.00 L 75.30 572.80 L 81.40 556.80 L 83.90 551.90 L 86.00 548.80 L 88.40 545.80 L 91.30 543.00 L 92.60 542.10 L 93.50 541.90 L 94.10 542.20 L 94.50 542.90 L 94.80 544.50 L 94.60 547.60 L 93.80 551.00 L 92.50 554.40 L 76.40 586.50 Z" fill="#00ca8e" fill-rule="nonzero" group-id="1" id="路径" node-id="55" stroke="none" target-height="107.600006" target-width="62.2" target-x="39.2" target-y="478.9"/><g node-id="140"><path d="M 642.40 501.20 L 641.50 501.50 L 640.20 501.30 L 638.50 500.30 L 636.00 498.00 L 633.60 494.90 L 631.70 491.50 L 630.50 488.30 L 630.30 486.30 L 630.60 485.10 L 631.10 484.40 L 632.00 484.10 L 633.20 484.30 L 635.00 485.30 L 637.50 487.60 L 639.90 490.70 L 641.80 494.10 L 642.90 497.30 L 643.20 499.30 L 642.90 500.50 L 642.40 501.20 Z" fill="#fdfdfd" fill-rule="nonzero" group-id="1,4" id="椭圆形" node-id="56" stroke="none" target-height="17.399994" target-width="12.900024" target-x="630.3" target-y="484.1"/></g><g node-id="141"><path d="M 502.20 501.50 L 500.50 499.50 L 499.60 496.10 L 499.80 493.90 L 500.50 491.60 L 501.70 489.40 L 504.30 486.80 L 507.40 485.30 L 510.60 485.10 L 513.40 486.20 L 515.20 488.40 L 516.00 491.50 L 515.50 494.90 L 513.80 498.20 L 512.10 500.10 L 510.20 501.50 L 508.10 502.30 L 504.70 502.50 L 502.20 501.50 Z" fill="#fdfdfd" fill-rule="nonzero" group-id="1,5" id="椭圆形" node-id="57" stroke="none" target-height="17.399994" target-width="16.399994" target-x="499.6" target-y="485.1"/></g><path d="M 671.30 485.40 L 682.40 487.50 L 686.40 490.80 L 690.60 493.50 L 694.80 495.60 L 699.30 497.10 L 704.00 498.10 L 708.90 498.60 L 714.70 498.60 L 715.60 499.50 L 714.40 511.00 L 706.40 512.00 L 698.40 512.40 L 690.40 512.20 L 682.40 511.40 L 671.30 485.40 Z" fill="#ffa3a6" fill-rule="nonzero" group-id="1" id="路径" node-id="58" stroke="none" target-height="27.00003" target-width="44.299988" target-x="671.3" target-y="485.4"/><path d="M 227.10 531.40 L 229.20 531.70 L 232.70 533.20 L 232.50 559.30 L 223.90 559.00 L 215.40 559.30 L 207.10 560.10 L 199.00 561.50 L 191.00 563.40 L 183.10 565.90 L 175.30 568.90 L 167.70 572.40 L 156.10 577.10 L 156.00 576.30 L 155.70 575.80 L 155.00 575.60 L 152.60 577.70 L 152.20 577.30 L 151.10 574.60 L 150.70 572.10 L 150.50 564.90 L 148.40 552.50 L 148.50 552.10 L 149.60 551.90 L 149.80 551.60 L 149.90 547.50 L 149.50 543.60 L 147.50 532.40 L 144.50 510.80 L 142.60 501.80 L 142.60 497.60 L 141.30 493.10 L 141.50 490.60 L 142.30 489.60 L 143.20 489.10 L 144.80 489.20 L 145.60 490.00 L 150.90 496.40 L 156.50 502.30 L 162.30 507.60 L 168.30 512.40 L 174.60 516.70 L 181.10 520.60 L 187.90 523.90 L 194.90 526.90 L 202.30 529.30 L 210.00 531.30 L 218.10 532.90 L 226.50 533.90 L 227.30 533.60 L 227.10 531.40 Z" fill="#fe506e" fill-rule="nonzero" group-id="1" id="路径" node-id="59" stroke="none" target-height="88.600006" target-width="91.399994" target-x="141.3" target-y="489.1"/><path d="M 752.80 509.30 L 755.30 510.10 L 758.40 510.40 L 762.00 510.30 L 766.40 509.50 L 771.70 508.00 L 774.80 515.60 L 778.00 521.20 L 781.80 526.60 L 786.50 532.20 L 786.30 533.10 L 767.30 536.10 L 734.90 537.40 L 727.40 533.10 L 725.60 530.00 L 724.30 526.90 L 723.40 523.70 L 723.10 520.40 L 723.20 516.90 L 723.80 513.20 L 725.00 509.40 L 731.10 506.80 L 731.90 505.80 L 731.40 504.60 L 729.20 502.30 L 727.60 499.70 L 726.40 496.70 L 726.70 495.40 L 728.00 495.00 L 733.00 496.50 L 737.60 498.30 L 741.90 500.50 L 745.80 503.10 L 749.40 506.00 L 752.80 509.30 Z" fill="#ffa3a6" fill-rule="nonzero" group-id="1" id="路径" node-id="60" stroke="none" target-height="42.400024" target-width="63.400024" target-x="723.1" target-y="495"/><path d="M 794.50 498.00 L 806.80 517.70 L 807.10 518.50 L 807.00 520.30 L 807.40 521.10 L 809.00 522.10 L 811.00 526.50 L 812.10 527.50 L 813.20 528.10 L 814.60 528.30 L 805.50 531.70 L 800.50 533.10 L 795.50 533.90 L 792.20 534.00 L 789.10 533.80 L 786.30 533.10 L 786.50 532.20 L 781.80 526.60 L 778.00 521.20 L 774.80 515.60 L 772.20 509.60 L 775.30 507.30 L 794.50 498.00 Z" fill="#00be7b" fill-rule="nonzero" group-id="1" id="路径" node-id="61" stroke="none" target-height="36" target-width="42.399963" target-x="772.2" target-y="498"/><path d="M 769.10 498.10 L 771.70 508.00 L 766.40 509.50 L 762.00 510.30 L 758.40 510.40 L 755.30 510.10 L 752.80 509.30 L 758.80 505.90 L 764.30 502.10 L 769.10 498.10 Z" fill="#fdfdfd" fill-rule="nonzero" group-id="1" id="路径" node-id="62" stroke="none" target-height="12.299988" target-width="18.900024" target-x="752.8" target-y="498.1"/><path d="M 446.70 506.70 L 440.60 537.90 L 424.00 537.90 L 423.30 534.00 L 423.10 530.30 L 423.50 526.60 L 424.40 523.00 L 425.80 519.40 L 426.30 518.80 L 427.00 518.60 L 439.10 517.30 L 439.40 516.30 L 437.60 514.00 L 436.60 512.00 L 436.10 509.90 L 436.00 507.50 L 436.30 506.80 L 436.90 506.60 L 446.70 506.70 Z" fill="#ffa3a6" fill-rule="nonzero" group-id="1" id="路径" node-id="63" stroke="none" target-height="31.300018" target-width="23.600006" target-x="423.1" target-y="506.6"/><path d="M 725.00 509.40 L 723.80 513.20 L 723.20 516.90 L 723.10 520.40 L 723.40 523.70 L 724.30 526.90 L 725.60 530.00 L 727.40 533.10 L 694.90 533.30 L 693.40 533.10 L 692.10 532.50 L 691.10 531.50 L 690.30 530.30 L 682.40 511.40 L 690.40 512.20 L 698.40 512.40 L 706.40 512.00 L 725.00 509.40 Z" fill="#fdfdfd" fill-rule="nonzero" group-id="1" id="路径" node-id="64" stroke="none" target-height="23.899994" target-width="45" target-x="682.4" target-y="509.4"/><path d="M 844.00 517.10 L 843.40 519.20 L 844.70 521.50 L 845.30 523.20 L 845.30 524.70 L 844.50 527.50 L 844.60 528.40 L 845.00 529.10 L 846.60 530.10 L 846.90 530.80 L 848.40 550.90 L 847.80 551.90 L 846.10 552.30 L 845.90 553.10 L 846.40 557.20 L 846.60 557.50 L 847.80 557.50 L 847.90 557.70 L 848.70 565.30 L 828.70 560.30 L 822.50 559.40 L 816.20 558.80 L 809.80 558.70 L 809.70 537.60 L 816.10 535.10 L 822.30 532.30 L 828.10 529.10 L 833.70 525.50 L 838.90 521.50 L 844.00 517.10 Z" fill="#00a770" fill-rule="nonzero" group-id="1" id="路径" node-id="65" stroke="none" target-height="48.200012" target-width="39" target-x="809.7" target-y="517.1"/><path d="M 973.60 711.70 L 960.10 712.40 L 957.50 705.90 L 954.60 699.60 L 947.70 687.90 L 939.60 677.00 L 933.00 669.20 L 925.00 660.70 L 924.90 660.30 L 925.30 660.10 L 926.80 660.20 L 931.10 661.50 L 935.10 663.00 L 938.70 664.90 L 942.00 667.00 L 945.00 669.40 L 947.70 672.20 L 950.20 675.10 L 952.40 678.40 L 954.80 683.00 L 956.80 688.10 L 958.30 693.60 L 958.60 694.00 L 958.90 693.70 L 957.50 682.70 L 956.40 671.70 L 955.80 660.60 L 955.60 649.50 L 955.30 648.80 L 954.70 648.40 L 951.10 647.00 L 948.10 645.40 L 945.50 643.40 L 943.30 641.00 L 941.40 638.40 L 939.80 635.50 L 937.90 630.90 L 935.30 620.80 L 933.20 607.20 L 932.60 598.60 L 932.90 587.10 L 933.60 581.50 L 934.80 576.00 L 936.40 570.80 L 938.50 565.90 L 940.50 562.30 L 942.70 559.00 L 945.30 556.00 L 948.30 553.10 L 951.50 550.60 L 955.10 548.40 L 959.20 546.50 L 966.50 543.90 L 968.90 542.50 L 974.40 538.00 L 983.20 528.40 L 985.80 525.90 L 989.00 523.50 L 992.50 521.40 L 996.10 519.70 L 1000.00 518.60 L 1003.70 518.10 L 1006.20 518.10 L 1008.60 518.60 L 1010.80 519.50 L 1012.90 520.80 L 1014.80 522.60 L 1016.60 525.00 L 1018.20 528.20 L 1019.30 531.20 L 1020.00 534.20 L 1020.30 537.10 L 1019.80 546.60 L 1020.00 552.70 L 1020.70 558.20 L 1023.80 570.50 L 1024.00 572.40 L 1023.70 577.00 L 1022.70 581.90 L 1021.00 587.10 L 1018.80 592.10 L 1016.10 597.20 L 1009.20 607.50 L 1001.00 617.40 L 994.20 624.40 L 987.10 630.80 L 982.20 634.90 L 972.80 641.60 L 967.90 644.50 L 958.80 649.00 L 958.60 649.80 L 958.70 660.90 L 959.30 671.90 L 960.50 682.90 L 962.30 694.30 L 963.00 694.30 L 963.20 693.90 L 964.30 688.30 L 967.50 678.10 L 971.30 670.40 L 973.70 666.90 L 976.30 663.80 L 979.30 661.10 L 981.70 659.30 L 984.40 658.00 L 987.20 656.90 L 990.40 656.30 L 992.40 656.20 L 994.10 656.60 L 995.40 657.30 L 997.20 659.00 L 998.60 661.20 L 1000.70 666.40 L 1001.70 670.40 L 1002.30 674.50 L 1002.40 678.80 L 1002.00 683.10 L 1001.20 687.20 L 999.90 691.20 L 998.10 695.10 L 995.80 698.50 L 992.90 701.70 L 990.30 703.80 L 987.20 705.80 L 980.50 708.90 L 973.60 711.70 Z" fill="#00be7b" fill-rule="nonzero" group-id="1" id="路径" node-id="66" stroke="none" target-height="194.30005" target-width="99.099976" target-x="924.9" target-y="518.1"/><path d="M 232.70 533.20 L 249.90 533.90 L 249.40 538.00 L 249.00 538.60 L 248.30 538.80 L 242.90 538.30 L 237.70 538.50 L 232.70 539.20 L 232.70 533.20 Z" fill="#fdfdfd" fill-rule="nonzero" group-id="1" id="路径" node-id="67" stroke="none" target-height="6" target-width="17.199997" target-x="232.7" target-y="533.2"/><path d="M 249.90 533.90 L 284.70 534.00 L 285.10 535.20 L 285.90 536.10 L 287.00 536.90 L 289.60 537.80 L 323.30 538.40 L 355.70 538.30 L 357.00 537.60 L 357.50 536.40 L 359.40 537.80 L 360.10 537.90 L 553.40 538.10 L 602.50 538.70 L 627.00 538.50 L 631.50 538.00 L 734.90 537.40 L 767.30 536.10 L 767.40 537.70 L 769.00 538.30 L 787.70 538.20 L 809.70 537.60 L 809.80 566.40 L 809.60 567.10 L 808.90 567.30 L 772.40 567.80 L 765.40 567.20 L 758.90 567.10 L 752.80 567.40 L 747.10 568.20 L 746.70 567.40 L 745.30 566.80 L 716.80 567.20 L 673.70 566.70 L 647.00 567.20 L 644.20 566.80 L 642.20 566.90 L 640.80 567.50 L 639.50 566.50 L 636.20 566.80 L 558.80 566.80 L 427.00 567.40 L 347.50 567.30 L 335.60 567.00 L 307.60 567.00 L 283.40 567.90 L 233.80 567.30 L 233.10 567.00 L 232.80 566.30 L 232.50 559.30 L 232.70 539.20 L 237.70 538.50 L 242.90 538.30 L 248.30 538.80 L 249.00 538.60 L 249.40 538.00 L 249.90 533.90 Z" fill="#dfe1ff" fill-rule="nonzero" group-id="1" id="路径" node-id="68" stroke="none" target-height="34.299988" target-width="577.3" target-x="232.5" target-y="533.9"/><path d="M 809.80 558.70 L 816.20 558.80 L 822.50 559.40 L 828.70 560.30 L 834.80 561.70 L 832.90 562.20 L 831.20 563.00 L 829.90 564.10 L 828.80 565.70 L 827.60 568.30 L 822.30 571.50 L 818.00 574.60 L 813.90 578.10 L 810.20 582.00 L 810.30 582.40 L 811.30 582.70 L 811.00 583.20 L 805.50 587.80 L 777.10 607.40 L 766.20 615.50 L 749.20 630.20 L 745.30 635.50 L 743.10 640.00 L 741.30 644.70 L 738.80 654.60 L 737.90 656.70 L 737.50 659.20 L 737.40 665.40 L 738.40 676.50 L 741.00 690.10 L 744.20 703.50 L 749.00 720.80 L 753.90 746.00 L 755.40 760.10 L 757.30 765.70 L 748.40 766.50 L 745.30 765.20 L 744.10 765.20 L 743.50 765.50 L 740.30 773.30 L 738.30 776.50 L 735.80 779.40 L 733.00 782.10 L 729.60 784.50 L 722.30 788.50 L 718.50 790.00 L 714.50 791.00 L 711.70 789.50 L 710.60 788.30 L 710.30 786.70 L 710.50 785.60 L 711.70 784.10 L 710.80 782.10 L 710.70 781.00 L 712.00 777.10 L 711.80 776.00 L 711.10 774.60 L 716.00 769.60 L 716.80 771.30 L 717.70 772.50 L 718.70 773.10 L 720.00 773.30 L 737.90 768.80 L 738.60 768.40 L 739.30 766.90 L 733.20 755.20 L 720.50 726.00 L 710.80 702.20 L 701.70 678.00 L 699.30 671.10 L 697.50 664.30 L 696.10 657.60 L 695.20 650.90 L 694.90 644.20 L 695.20 637.60 L 695.90 632.70 L 697.10 627.80 L 698.70 622.90 L 702.60 613.30 L 703.90 608.20 L 711.00 566.90 L 716.80 567.20 L 714.30 583.60 L 712.90 587.60 L 711.80 592.00 L 711.10 596.90 L 711.00 602.70 L 719.10 596.40 L 727.00 590.70 L 735.40 585.30 L 744.00 580.40 L 753.10 575.80 L 762.50 571.60 L 772.40 567.80 L 808.90 567.30 L 809.60 567.10 L 809.80 566.40 L 809.80 558.70 Z" fill="#3f45d7" fill-rule="nonzero" group-id="1" id="路径" node-id="69" stroke="none" target-height="232.29999" target-width="139.89996" target-x="694.9" target-y="558.7"/><path d="M 232.50 559.30 L 232.80 566.30 L 233.10 567.00 L 233.80 567.30 L 267.60 567.60 L 274.30 569.80 L 280.90 572.60 L 287.40 575.90 L 294.00 579.80 L 299.40 583.60 L 304.20 587.50 L 308.30 591.50 L 311.80 595.60 L 315.00 600.00 L 317.60 604.60 L 319.90 609.30 L 321.60 614.10 L 323.00 619.10 L 324.80 629.70 L 325.10 642.80 L 324.70 650.70 L 323.80 659.00 L 321.80 662.90 L 318.90 672.00 L 318.00 669.60 L 318.00 667.70 L 318.90 665.10 L 317.10 664.40 L 317.00 664.00 L 315.50 641.60 L 315.00 636.80 L 314.00 632.20 L 311.90 626.40 L 310.40 623.60 L 308.50 621.10 L 306.10 618.70 L 303.10 616.30 L 298.10 613.10 L 293.20 610.40 L 288.30 608.20 L 283.60 606.50 L 276.90 604.70 L 274.90 603.80 L 269.20 603.30 L 259.90 601.20 L 244.40 599.30 L 237.50 598.10 L 209.80 592.00 L 193.90 589.60 L 185.40 587.80 L 182.20 586.40 L 180.60 583.90 L 169.10 575.90 L 169.00 575.60 L 170.00 574.80 L 167.70 572.40 L 175.30 568.90 L 183.10 565.90 L 191.00 563.40 L 199.00 561.50 L 207.10 560.10 L 215.40 559.30 L 223.90 559.00 L 232.50 559.30 Z" fill="#4350fc" fill-rule="nonzero" group-id="1" id="路径" node-id="70" stroke="none" target-height="113" target-width="157.40001" target-x="167.7" target-y="559"/><path d="M 834.80 561.70 L 863.20 568.90 L 870.70 570.20 L 878.10 570.90 L 883.00 570.90 L 887.90 570.50 L 892.70 569.70 L 897.40 568.30 L 901.90 566.40 L 906.40 563.80 L 906.60 568.00 L 906.40 572.10 L 905.40 579.70 L 904.30 586.40 L 902.70 592.60 L 900.50 598.60 L 897.80 604.20 L 894.50 609.60 L 890.60 614.80 L 886.00 619.70 L 882.40 622.10 L 875.40 625.70 L 872.00 626.80 L 867.20 627.90 L 862.40 628.50 L 857.50 628.60 L 850.20 628.10 L 820.00 623.60 L 812.30 623.20 L 807.10 623.30 L 801.90 624.00 L 796.60 625.10 L 790.90 627.00 L 785.60 629.30 L 780.50 632.10 L 775.70 635.50 L 771.10 639.40 L 766.80 643.90 L 762.70 649.00 L 761.00 651.90 L 760.10 654.60 L 759.80 657.30 L 760.00 660.10 L 760.80 663.00 L 764.60 673.10 L 766.60 680.20 L 768.20 687.70 L 770.10 703.10 L 770.50 711.00 L 770.70 722.90 L 770.30 734.60 L 768.90 759.50 L 768.60 761.60 L 766.90 763.50 L 757.30 765.70 L 755.40 760.10 L 753.90 746.00 L 749.80 724.90 L 749.00 720.80 L 744.20 703.50 L 741.00 690.10 L 738.40 676.50 L 737.80 671.90 L 737.40 665.40 L 737.50 659.20 L 737.90 656.70 L 739.10 653.90 L 741.30 644.70 L 743.10 640.00 L 745.30 635.50 L 747.20 632.70 L 749.20 630.20 L 751.50 628.10 L 766.20 615.50 L 777.10 607.40 L 805.50 587.80 L 811.00 583.20 L 811.30 582.70 L 810.30 582.40 L 810.20 582.00 L 813.90 578.10 L 818.00 574.60 L 822.30 571.50 L 827.60 568.30 L 828.80 565.70 L 829.90 564.10 L 831.20 563.00 L 832.90 562.20 L 834.80 561.70 Z" fill="#4350fc" fill-rule="nonzero" group-id="1" id="路径" node-id="71" stroke="none" target-height="204" target-width="169.19995" target-x="737.4" target-y="561.7"/><path d="M 640.80 567.50 L 650.20 617.90 L 645.10 622.10 L 640.90 626.50 L 638.30 629.60 L 636.30 632.70 L 634.80 636.00 L 633.80 639.40 L 633.40 642.90 L 633.60 646.80 L 635.20 652.50 L 638.80 659.30 L 654.70 681.90 L 663.70 693.90 L 664.80 697.00 L 666.30 703.20 L 683.00 787.10 L 515.70 787.20 L 486.30 649.30 L 497.70 647.60 L 501.20 646.50 L 505.30 644.50 L 508.70 642.20 L 511.50 639.60 L 513.80 636.70 L 515.50 633.40 L 516.70 629.60 L 517.40 625.40 L 517.60 620.60 L 517.10 619.40 L 515.90 619.00 L 479.30 618.90 L 481.00 613.70 L 482.20 608.40 L 482.90 602.80 L 483.10 597.10 L 482.80 591.20 L 481.80 584.90 L 481.30 567.00 L 636.20 566.80 L 639.50 566.50 L 640.80 567.50 Z" fill="#fdfdfd" fill-rule="nonzero" group-id="1" id="路径" node-id="72" stroke="none" target-height="220.70001" target-width="203.70001" target-x="479.3" target-y="566.5"/><path d="M 673.70 566.70 L 677.40 592.50 L 678.10 598.80 L 678.10 601.40 L 655.80 614.10 L 647.00 567.20 L 673.70 566.70 Z" fill="#fdfdfd" fill-rule="nonzero" group-id="1" id="路径" node-id="73" stroke="none" target-height="47.399963" target-width="31.099976" target-x="647" target-y="566.7"/><path d="M 711.00 566.90 L 707.50 586.90 L 684.10 598.50 L 680.00 567.00 Z" fill="#fdfdfd" fill-rule="nonzero" group-id="1" id="路径" node-id="74" stroke="none" target-height="31.599976" target-width="31" target-x="680" target-y="566.9"/><path d="M 747.10 568.20 L 714.30 583.60 L 716.80 567.20 L 745.30 566.80 L 746.70 567.40 L 747.10 568.20 Z" fill="#fdfdfd" fill-rule="nonzero" group-id="1" id="路径" node-id="75" stroke="none" target-height="16.799988" target-width="32.799988" target-x="714.3" target-y="566.8"/><path d="M 341.40 567.30 L 337.20 589.60 L 329.00 584.80 L 320.90 580.60 L 312.30 576.80 L 303.20 573.40 L 293.60 570.40 L 283.40 567.90 L 307.60 567.00 L 335.60 567.00 L 341.40 567.30 Z" fill="#fdfdfd" fill-rule="nonzero" group-id="1" id="路径" node-id="76" stroke="none" target-height="22.599976" target-width="58" target-x="283.4" target-y="567"/><path d="M 365.90 567.20 L 364.40 581.80 L 363.30 589.00 L 362.80 595.80 L 363.00 602.20 L 363.80 608.30 L 365.10 614.10 L 367.00 619.60 L 355.80 620.30 L 354.30 614.90 L 352.20 609.90 L 349.70 605.20 L 346.70 600.80 L 342.80 596.00 L 347.50 567.30 L 365.90 567.20 Z" fill="#fdfdfd" fill-rule="nonzero" group-id="1" id="路径" node-id="77" stroke="none" target-height="53.099976" target-width="24.200012" target-x="342.8" target-y="567.2"/><path d="M 647.00 567.20 L 670.70 696.00 L 671.90 701.60 L 673.80 707.50 L 689.60 787.70 L 690.10 788.30 L 704.20 779.30 L 705.00 778.10 L 705.00 777.20 L 698.70 742.70 L 698.40 737.40 L 689.40 672.30 L 679.90 607.40 L 679.40 604.80 L 678.10 601.40 L 678.10 598.80 L 677.40 592.50 L 673.70 566.70 L 680.00 567.00 L 684.10 598.50 L 706.90 750.80 L 711.10 774.60 L 711.80 776.00 L 711.80 778.10 L 710.70 781.00 L 710.80 782.10 L 711.70 784.10 L 710.50 785.60 L 710.30 786.70 L 711.00 789.00 L 714.50 791.00 L 714.90 795.80 L 714.60 799.00 L 713.90 800.20 L 712.20 801.00 L 710.80 801.10 L 710.00 800.80 L 709.60 800.10 L 707.10 793.30 L 691.40 793.60 L 690.80 793.80 L 690.70 794.50 L 691.10 797.30 L 691.10 800.20 L 690.80 800.90 L 690.10 801.20 L 687.80 801.50 L 686.40 800.60 L 686.00 799.80 L 683.00 787.10 L 666.30 703.20 L 664.80 697.00 L 663.70 693.90 L 650.20 617.90 L 640.80 567.50 L 642.20 566.90 L 644.20 566.80 L 647.00 567.20 Z" fill="#3f39ce" fill-rule="nonzero" group-id="1" id="路径" node-id="78" stroke="none" target-height="234.79999" target-width="74.10004" target-x="640.8" target-y="566.7"/><path d="M 267.60 567.60 L 283.40 567.90 L 293.60 570.40 L 303.20 573.40 L 312.30 576.80 L 320.90 580.60 L 329.00 584.80 L 337.20 589.60 L 341.40 567.30 L 347.50 567.30 L 342.80 596.00 L 346.70 600.80 L 349.70 605.20 L 352.20 609.90 L 354.30 614.90 L 355.80 620.30 L 356.40 637.40 L 353.90 647.20 L 350.90 657.00 L 347.40 666.80 L 341.70 681.40 L 335.60 695.80 L 322.80 723.80 L 319.30 732.40 L 316.40 741.00 L 314.00 749.70 L 312.10 758.50 L 308.90 776.40 L 309.40 777.70 L 313.70 780.90 L 317.90 783.60 L 326.10 787.70 L 328.00 789.20 L 328.80 790.30 L 328.90 791.20 L 328.50 792.00 L 326.50 793.00 L 319.40 793.20 L 304.70 792.30 L 303.30 798.10 L 302.50 799.80 L 300.80 801.20 L 299.00 801.30 L 297.90 800.30 L 297.70 799.60 L 297.60 796.40 L 298.00 793.20 L 299.10 789.50 L 298.60 789.10 L 291.10 786.00 L 295.80 766.40 L 297.30 765.60 L 302.40 772.60 L 303.20 773.00 L 307.30 753.70 L 308.10 752.60 L 309.10 750.00 L 310.90 743.20 L 314.00 725.00 L 313.90 724.30 L 312.70 723.80 L 310.80 724.90 L 315.70 703.10 L 320.00 681.10 L 323.80 659.00 L 324.70 650.70 L 325.10 642.80 L 325.10 635.30 L 324.10 624.30 L 321.60 614.10 L 319.90 609.30 L 317.60 604.60 L 315.00 600.00 L 311.80 595.60 L 308.30 591.50 L 304.20 587.50 L 299.40 583.60 L 294.00 579.80 L 287.40 575.90 L 280.90 572.60 L 274.30 569.80 L 267.60 567.60 Z" fill="#3f39ce" fill-rule="nonzero" group-id="1" id="路径" node-id="79" stroke="none" target-height="234" target-width="88.79999" target-x="267.6" target-y="567.3"/><path d="M 365.90 567.20 L 406.20 567.40 L 402.40 569.70 L 399.70 570.80 L 395.20 574.00 L 390.70 576.60 L 385.90 578.70 L 380.90 580.30 L 375.70 581.30 L 370.20 581.80 L 364.40 581.80 L 365.90 567.20 Z" fill="#36297e" fill-rule="nonzero" group-id="1" id="路径" node-id="80" stroke="none" target-height="14.599976" target-width="41.80002" target-x="364.4" target-y="567.2"/><path d="M 406.20 567.40 L 427.00 567.40 L 433.60 570.70 L 438.00 573.30 L 445.90 579.60 L 453.50 585.00 L 459.50 587.60 L 462.60 588.30 L 465.90 588.60 L 469.50 588.40 L 473.00 587.90 L 477.10 586.70 L 481.80 584.90 L 482.80 591.20 L 483.10 597.10 L 482.90 602.80 L 482.20 608.40 L 481.00 613.70 L 479.30 618.90 L 476.00 622.70 L 474.60 625.10 L 473.00 628.90 L 471.70 633.10 L 470.00 641.50 L 469.20 649.00 L 452.10 728.10 L 450.10 724.50 L 448.70 723.30 L 447.20 719.60 L 445.60 717.70 L 444.90 713.60 L 443.30 708.20 L 438.10 697.40 L 436.50 693.40 L 419.00 643.60 L 416.80 635.80 L 414.20 624.70 L 409.80 610.90 L 404.20 588.50 L 402.50 579.60 L 400.50 576.50 L 399.70 574.80 L 399.40 572.90 L 399.70 570.80 L 402.40 569.70 L 406.20 567.40 Z" fill="#6970c7" fill-rule="nonzero" group-id="1" id="路径" node-id="81" stroke="none" target-height="160.69995" target-width="83.70001" target-x="399.4" target-y="567.4"/><path d="M 427.00 567.40 L 481.30 567.00 L 481.80 584.90 L 477.10 586.70 L 473.00 587.90 L 469.50 588.40 L 465.90 588.60 L 462.60 588.30 L 459.50 587.60 L 453.50 585.00 L 445.90 579.60 L 438.00 573.30 L 433.60 570.70 L 427.00 567.40 Z" fill="#36297e" fill-rule="nonzero" group-id="1" id="路径" node-id="82" stroke="none" target-height="21.599976" target-width="54.799988" target-x="427" target-y="567"/><path d="M 772.40 567.80 L 762.50 571.60 L 753.10 575.80 L 744.00 580.40 L 735.40 585.30 L 727.00 590.70 L 719.10 596.40 L 711.00 602.70 L 711.10 596.90 L 711.80 592.00 L 712.90 587.60 L 714.30 583.60 L 747.10 568.20 L 752.80 567.40 L 758.90 567.10 L 765.40 567.20 L 772.40 567.80 Z" fill="#36297e" fill-rule="nonzero" group-id="1" id="路径" node-id="83" stroke="none" target-height="35.600037" target-width="61.400024" target-x="711" target-y="567.1"/><path d="M 399.70 570.80 L 399.40 572.90 L 399.70 574.80 L 400.50 576.50 L 402.50 579.60 L 404.20 588.50 L 409.80 610.90 L 414.20 624.70 L 416.80 635.80 L 419.00 643.60 L 436.50 693.40 L 438.10 697.40 L 443.30 708.20 L 444.90 713.60 L 445.60 717.70 L 447.20 719.60 L 448.70 723.30 L 450.10 724.50 L 452.10 728.10 L 448.50 746.20 L 447.50 753.00 L 446.70 766.60 L 446.90 787.10 L 446.40 795.10 L 445.60 796.40 L 444.20 797.10 L 442.70 797.10 L 441.10 796.40 L 440.40 795.10 L 439.70 783.90 L 440.60 776.90 L 440.80 769.60 L 440.50 762.00 L 440.20 761.30 L 439.40 760.90 L 437.20 760.80 L 434.80 761.10 L 415.30 768.20 L 412.50 766.90 L 410.50 764.50 L 409.80 762.70 L 399.70 726.10 L 391.20 693.10 L 383.10 659.60 L 378.90 636.90 L 377.80 633.50 L 374.70 627.30 L 372.60 624.50 L 370.10 621.90 L 367.00 619.60 L 365.10 614.10 L 363.80 608.30 L 363.00 602.20 L 362.80 595.80 L 363.30 589.00 L 364.40 581.80 L 370.20 581.80 L 375.70 581.30 L 380.90 580.30 L 385.90 578.70 L 390.70 576.60 L 395.20 574.00 L 399.70 570.80 Z" fill="#5a66ab" fill-rule="nonzero" group-id="1" id="路径" node-id="84" stroke="none" target-height="226.29999" target-width="89.30002" target-x="362.8" target-y="570.8"/><path d="M 167.70 572.40 L 170.00 574.80 L 169.00 575.60 L 169.10 575.90 L 180.60 583.90 L 182.20 586.40 L 185.40 587.80 L 193.90 589.60 L 209.80 592.00 L 237.50 598.10 L 244.40 599.30 L 259.90 601.20 L 269.20 603.30 L 274.90 603.80 L 276.90 604.70 L 283.60 606.50 L 288.30 608.20 L 293.20 610.40 L 298.10 613.10 L 303.10 616.30 L 306.10 618.70 L 308.50 621.10 L 311.90 626.40 L 314.00 632.20 L 315.00 636.80 L 317.00 664.00 L 317.10 664.40 L 318.90 665.10 L 318.00 667.70 L 318.00 669.60 L 318.50 671.50 L 319.00 672.00 L 320.20 667.10 L 321.80 662.90 L 323.80 659.00 L 320.00 681.10 L 315.70 703.10 L 310.80 724.90 L 304.10 750.60 L 304.50 751.70 L 297.30 764.70 L 297.30 765.60 L 295.80 766.40 L 295.50 767.10 L 291.10 786.00 L 285.80 799.60 L 285.40 800.20 L 284.30 801.00 L 282.80 801.10 L 281.20 799.80 L 280.80 798.20 L 280.80 795.90 L 283.00 784.80 L 283.50 783.80 L 284.20 783.50 L 285.20 779.80 L 286.00 775.70 L 286.30 771.10 L 286.10 766.00 L 285.90 765.50 L 285.40 765.30 L 271.10 763.60 L 268.00 742.00 L 266.90 731.10 L 265.90 714.70 L 265.40 698.30 L 265.10 660.80 L 264.40 656.80 L 263.10 653.10 L 261.40 649.60 L 259.10 646.30 L 256.30 643.10 L 255.70 642.70 L 255.20 642.70 L 254.90 643.20 L 254.70 642.00 L 253.60 640.60 L 246.60 636.70 L 239.40 633.30 L 232.00 630.50 L 224.40 628.30 L 216.60 626.50 L 208.60 625.40 L 187.30 623.20 L 180.80 623.20 L 174.20 623.60 L 167.60 624.40 L 147.30 627.90 L 141.90 628.30 L 136.80 628.10 L 132.00 627.40 L 127.60 626.20 L 123.30 624.40 L 119.30 622.10 L 115.50 619.20 L 112.60 615.70 L 108.50 609.20 L 106.30 604.10 L 104.80 598.90 L 102.70 587.20 L 109.80 587.60 L 116.70 587.50 L 123.40 587.00 L 130.00 585.90 L 136.50 584.40 L 143.00 582.40 L 149.50 580.00 L 167.70 572.40 Z" fill="#3f45d7" fill-rule="nonzero" group-id="1" id="路径" node-id="85" stroke="none" target-height="228.69995" target-width="221.09999" target-x="102.7" target-y="572.4"/><path d="M 97.20 586.30 L 91.90 587.20 L 90.80 588.40 L 90.60 589.20 L 86.30 644.90 L 45.30 645.10 L 32.60 587.70 L 32.80 586.80 L 33.60 586.40 L 76.40 586.50 L 87.80 586.10 L 94.60 584.60 L 96.40 585.30 L 97.20 586.30 Z" fill="#ff7c90" fill-rule="nonzero" group-id="1" id="路径" node-id="86" stroke="none" target-height="60.5" target-width="64.6" target-x="32.6" target-y="584.6"/><path d="M 97.20 586.30 L 100.20 586.40 L 102.70 587.20 L 104.80 598.90 L 106.30 604.10 L 108.50 609.20 L 110.30 612.40 L 115.50 619.20 L 92.30 619.90 L 91.50 620.20 L 91.20 620.90 L 90.90 625.20 L 91.00 629.50 L 92.00 635.10 L 94.10 640.10 L 95.80 642.40 L 97.90 644.50 L 86.30 644.90 L 90.60 589.20 L 90.80 588.40 L 91.90 587.20 L 97.20 586.30 Z" fill="#c93352" fill-rule="nonzero" group-id="1" id="路径" node-id="87" stroke="none" target-height="58.600037" target-width="29.199997" target-x="86.3" target-y="586.3"/><path d="M 707.50 586.90 L 703.90 608.20 L 702.60 613.30 L 698.70 622.90 L 697.10 627.80 L 695.90 632.70 L 695.20 637.60 L 694.90 644.20 L 695.20 650.90 L 696.10 657.60 L 697.50 664.30 L 699.30 671.10 L 701.70 678.00 L 710.80 702.20 L 720.50 726.00 L 730.60 749.30 L 726.20 750.00 L 721.80 751.00 L 717.60 752.50 L 713.50 754.30 L 709.60 751.80 L 706.90 750.80 L 684.10 598.50 L 707.50 586.90 Z" fill="#36297e" fill-rule="nonzero" group-id="1" id="路径" node-id="88" stroke="none" target-height="167.39996" target-width="46.5" target-x="684.1" target-y="586.9"/><path d="M 678.10 601.40 L 679.40 604.80 L 679.90 607.40 L 689.40 672.30 L 698.40 737.40 L 698.70 742.70 L 673.80 707.50 L 672.90 705.20 L 670.70 696.00 L 656.20 617.90 L 655.80 614.10 L 678.10 601.40 Z" fill="#36297e" fill-rule="nonzero" group-id="1" id="路径" node-id="89" stroke="none" target-height="141.29999" target-width="42.900024" target-x="655.8" target-y="601.4"/><path d="M 650.20 617.90 L 663.70 693.90 L 654.70 681.90 L 638.80 659.30 L 635.20 652.50 L 633.60 646.80 L 633.40 642.90 L 633.80 639.40 L 634.80 636.00 L 636.30 632.70 L 638.30 629.60 L 640.90 626.50 L 645.10 622.10 L 650.20 617.90 Z" fill="#36297e" fill-rule="nonzero" group-id="1" id="路径" node-id="90" stroke="none" target-height="76" target-width="30.299988" target-x="633.4" target-y="617.9"/><path d="M 115.50 619.20 L 119.30 622.10 L 123.30 624.40 L 127.60 626.20 L 132.00 627.40 L 136.80 628.10 L 141.90 628.30 L 147.30 627.90 L 167.60 624.40 L 168.40 627.10 L 169.20 632.70 L 169.10 635.00 L 166.80 644.30 L 166.80 647.00 L 167.00 647.70 L 169.60 647.90 L 171.30 648.50 L 163.60 649.00 L 124.50 649.10 L 113.70 649.40 L 109.30 648.80 L 105.20 647.80 L 101.50 646.40 L 97.90 644.50 L 95.80 642.40 L 94.10 640.10 L 92.00 635.10 L 91.00 629.50 L 90.90 625.20 L 91.20 620.90 L 91.50 620.20 L 92.30 619.90 L 115.50 619.20 Z" fill="#009a70" fill-rule="nonzero" group-id="1" id="路径" node-id="91" stroke="none" target-height="30.200012" target-width="80.4" target-x="90.9" target-y="619.2"/><path d="M 479.30 618.90 L 516.60 619.10 L 517.40 619.90 L 517.60 620.60 L 517.40 625.40 L 516.70 629.60 L 515.50 633.40 L 513.80 636.70 L 511.50 639.60 L 508.70 642.20 L 505.30 644.50 L 501.20 646.50 L 497.70 647.60 L 486.30 649.30 L 479.40 648.60 L 469.20 649.00 L 470.70 637.30 L 473.00 628.90 L 476.00 622.70 L 479.30 618.90 Z" fill="#00be7b" fill-rule="nonzero" group-id="1" id="路径" node-id="92" stroke="none" target-height="30.399963" target-width="48.399963" target-x="469.2" target-y="618.9"/><path d="M 367.00 619.60 L 370.10 621.90 L 372.60 624.50 L 374.70 627.30 L 377.80 633.50 L 378.90 636.90 L 380.10 642.20 L 380.70 647.80 L 378.60 648.80 L 374.10 648.40 L 369.90 647.40 L 365.90 645.90 L 363.20 644.40 L 360.70 642.50 L 358.40 640.20 L 356.40 637.40 L 355.80 620.30 L 367.00 619.60 Z" fill="#009a70" fill-rule="nonzero" group-id="1" id="路径" node-id="93" stroke="none" target-height="29.200012" target-width="24.900024" target-x="355.8" target-y="619.6"/><path d="M 886.00 619.70 L 905.20 619.90 L 905.90 620.10 L 906.20 620.80 L 906.30 624.90 L 906.00 628.40 L 904.50 634.00 L 903.30 636.60 L 900.10 640.70 L 895.20 644.10 L 891.90 645.70 L 888.20 646.90 L 882.40 648.30 L 875.90 649.30 L 873.30 648.70 L 871.00 648.70 L 869.20 649.10 L 809.10 648.70 L 802.50 649.00 L 762.70 649.00 L 766.80 643.90 L 771.10 639.40 L 775.70 635.50 L 780.50 632.10 L 785.60 629.30 L 790.90 627.00 L 796.60 625.10 L 801.90 624.00 L 807.10 623.30 L 812.30 623.20 L 820.00 623.60 L 850.20 628.10 L 857.50 628.60 L 862.40 628.50 L 867.20 627.90 L 872.00 626.80 L 875.40 625.70 L 882.40 622.10 L 886.00 619.70 Z" fill="#00a770" fill-rule="nonzero" group-id="1" id="路径" node-id="94" stroke="none" target-height="29.599976" target-width="143.59998" target-x="762.7" target-y="619.7"/><path d="M 200.30 624.70 L 206.40 627.00 L 212.00 629.60 L 217.20 632.60 L 222.00 636.00 L 226.40 639.80 L 230.40 644.00 L 234.10 648.60 L 233.80 649.10 L 231.50 648.60 L 229.30 648.60 L 227.10 649.10 L 163.60 649.00 L 171.30 648.50 L 169.60 647.90 L 167.00 647.70 L 166.80 647.00 L 166.80 644.30 L 169.10 635.00 L 169.20 632.70 L 168.40 627.10 L 167.60 624.40 L 174.20 623.60 L 180.80 623.20 L 187.30 623.20 L 193.80 623.80 L 200.30 624.70 Z" fill="#00be7b" fill-rule="nonzero" group-id="1" id="路径" node-id="95" stroke="none" target-height="25.899963" target-width="70.5" target-x="163.6" target-y="623.2"/><path d="M 254.90 643.20 L 251.60 645.40 L 248.30 647.00 L 244.90 648.10 L 241.50 648.80 L 237.90 648.90 L 234.10 648.60 L 230.40 644.00 L 226.40 639.80 L 222.00 636.00 L 217.20 632.60 L 212.00 629.60 L 206.40 627.00 L 200.30 624.70 L 208.60 625.40 L 216.60 626.50 L 224.40 628.30 L 232.00 630.50 L 239.40 633.30 L 246.60 636.70 L 253.60 640.60 L 254.70 642.00 L 254.90 643.20 Z" fill="#009a70" fill-rule="nonzero" group-id="1" id="路径" node-id="96" stroke="none" target-height="24.200012" target-width="54.59999" target-x="200.3" target-y="624.7"/><path d="M 356.40 637.40 L 358.40 640.20 L 360.70 642.50 L 363.20 644.40 L 365.90 645.90 L 369.90 647.40 L 374.10 648.40 L 378.60 648.80 L 349.40 787.60 L 341.80 787.00 L 334.00 787.00 L 326.10 787.70 L 317.90 783.60 L 313.70 780.90 L 309.40 777.70 L 308.90 776.40 L 312.10 758.50 L 314.00 749.70 L 316.40 741.00 L 319.30 732.40 L 322.80 723.80 L 335.60 695.80 L 341.70 681.40 L 347.40 666.80 L 350.90 657.00 L 353.90 647.20 L 356.40 637.40 Z" fill="#fdfdfd" fill-rule="nonzero" group-id="1" id="路径" node-id="97" stroke="none" target-height="150.29999" target-width="69.70001" target-x="308.9" target-y="637.4"/><path d="M 271.10 763.60 L 271.70 767.70 L 272.80 771.30 L 274.20 774.40 L 276.10 777.20 L 278.30 779.60 L 281.00 781.70 L 284.20 783.50 L 283.50 783.80 L 283.00 784.80 L 282.50 787.10 L 275.10 786.90 L 268.20 787.20 L 261.60 788.00 L 233.80 649.10 L 234.10 648.60 L 237.90 648.90 L 241.50 648.80 L 244.90 648.10 L 248.30 647.00 L 251.60 645.40 L 255.70 642.70 L 259.10 646.30 L 261.40 649.60 L 263.10 653.10 L 264.40 656.80 L 265.10 660.80 L 265.30 665.10 L 265.40 698.30 L 265.90 714.70 L 266.90 731.10 L 268.00 742.00 L 271.10 763.60 Z" fill="#fdfdfd" fill-rule="nonzero" group-id="1" id="路径" node-id="98" stroke="none" target-height="145.29999" target-width="50.40001" target-x="233.8" target-y="642.7"/><path d="M 45.30 645.10 L 86.30 644.90 L 97.90 644.50 L 101.50 646.40 L 105.20 647.80 L 109.30 648.80 L 113.70 649.40 L 118.50 649.40 L 116.90 656.90 L 101.30 656.70 L 100.50 656.80 L 99.30 658.00 L 99.40 684.60 L 100.00 710.70 L 99.50 718.40 L 99.70 720.60 L 100.20 722.30 L 100.80 723.10 L 101.60 723.60 L 102.70 723.70 L 100.20 732.70 L 97.60 721.50 L 97.00 720.80 L 88.20 733.80 L 93.20 754.30 L 93.00 754.70 L 92.70 755.00 L 91.90 754.60 L 87.30 738.20 L 87.00 737.60 L 85.90 737.40 L 72.30 758.10 L 59.20 779.30 L 57.30 782.20 L 55.00 784.60 L 54.50 784.20 L 54.50 783.90 L 57.70 778.10 L 85.50 734.90 L 86.20 732.60 L 67.60 662.60 L 66.70 661.80 L 66.40 662.30 L 65.30 662.20 L 64.10 662.70 L 64.70 659.60 L 64.50 658.10 L 64.10 657.50 L 63.50 657.30 L 38.60 657.00 L 16.40 657.10 L 8.80 657.50 L 6.20 657.90 L 4.50 658.70 L 2.60 656.00 L 1.20 652.90 L 0.30 649.50 L 0.00 645.80 L 0.20 645.10 L 0.90 644.90 L 45.30 645.10 Z M 68.70 658.60 L 87.50 729.70 L 88.30 730.40 L 89.30 729.80 L 91.00 726.30 L 96.20 718.90 L 97.40 714.80 L 97.90 710.50 L 97.30 658.50 L 96.80 657.70 L 96.00 657.20 L 94.60 657.00 L 69.40 657.60 L 68.80 657.90 L 68.70 658.60 Z" fill="#ced2ff" fill-rule="nonzero" group-id="1" id="形状" node-id="99" stroke="none" target-height="140.09998" target-width="118.5" target-x="0" target-y="644.5"/><path d="M 380.70 647.80 L 383.10 659.60 L 355.70 790.00 L 354.10 794.60 L 353.30 795.60 L 352.20 796.20 L 350.80 796.20 L 349.80 795.80 L 348.60 794.00 L 349.40 787.60 L 378.60 648.80 L 380.70 647.80 Z" fill="#3f39ce" fill-rule="nonzero" group-id="1" id="路径" node-id="100" stroke="none" target-height="148.40002" target-width="34.5" target-x="348.6" target-y="647.8"/><path d="M 182.30 649.10 L 185.90 790.50 L 185.70 794.10 L 185.20 795.70 L 184.40 796.90 L 182.70 797.50 L 181.30 797.40 L 180.50 796.90 L 180.20 796.20 L 179.30 787.20 L 176.00 649.10 L 182.30 649.10 Z" fill="#3f39ce" fill-rule="nonzero" group-id="1" id="路径" node-id="101" stroke="none" target-height="148.40002" target-width="9.899994" target-x="176" target-y="649.1"/><path d="M 233.80 649.10 L 261.60 788.00 L 262.40 790.80 L 262.50 792.70 L 262.10 794.10 L 261.20 795.10 L 259.90 795.80 L 258.90 795.80 L 257.30 795.00 L 256.80 794.10 L 254.80 787.40 L 227.10 649.10 L 229.30 648.60 L 231.50 648.60 L 233.80 649.10 Z" fill="#3f39ce" fill-rule="nonzero" group-id="1" id="路径" node-id="102" stroke="none" target-height="147.20001" target-width="35.399994" target-x="227.1" target-y="648.6"/><path d="M 479.40 648.60 L 508.60 787.30 L 446.90 787.10 L 447.00 759.80 L 447.50 753.00 L 448.50 746.20 L 452.10 728.10 L 469.20 649.00 L 479.40 648.60 Z" fill="#fdfdfd" fill-rule="nonzero" group-id="1" id="路径" node-id="103" stroke="none" target-height="138.70001" target-width="61.700012" target-x="446.9" target-y="648.6"/><path d="M 479.40 648.60 L 486.30 649.30 L 515.70 787.20 L 516.10 793.30 L 515.70 794.80 L 514.90 795.70 L 514.20 796.00 L 513.20 796.00 L 511.00 795.20 L 508.60 787.30 L 479.40 648.60 Z" fill="#3f39ce" fill-rule="nonzero" group-id="1" id="路径" node-id="104" stroke="none" target-height="147.40002" target-width="36.69998" target-x="479.4" target-y="648.6"/><path d="M 809.10 648.70 L 804.90 787.10 L 804.00 795.60 L 803.00 796.70 L 800.90 797.10 L 799.20 796.30 L 798.50 795.20 L 798.00 791.70 L 802.50 649.00 L 809.10 648.70 Z" fill="#3f39ce" fill-rule="nonzero" group-id="1" id="路径" node-id="105" stroke="none" target-height="148.39996" target-width="11.099976" target-x="798" target-y="648.7"/><path d="M 869.20 649.10 L 898.00 787.00 L 804.90 787.10 L 809.10 648.70 Z" fill="#fdfdfd" fill-rule="nonzero" group-id="1" id="路径" node-id="106" stroke="none" target-height="138.39996" target-width="93.099976" target-x="804.9" target-y="648.7"/><path d="M 875.90 649.30 L 905.60 790.30 L 905.70 793.20 L 905.30 794.50 L 904.60 795.40 L 903.90 795.80 L 901.60 795.80 L 900.90 795.40 L 900.50 794.80 L 898.00 787.00 L 869.20 649.10 L 871.00 648.70 L 873.30 648.70 L 875.90 649.30 Z" fill="#3f39ce" fill-rule="nonzero" group-id="1" id="路径" node-id="107" stroke="none" target-height="147.09998" target-width="36.5" target-x="869.2" target-y="648.7"/><path d="M 124.50 649.10 L 123.60 656.40 L 96.40 785.20 L 94.50 791.00 L 93.20 793.40 L 91.90 794.90 L 90.90 795.40 L 89.90 795.40 L 88.60 794.80 L 88.10 794.20 L 88.50 787.50 L 100.20 732.70 L 102.70 723.70 L 118.50 649.40 L 124.50 649.10 Z" fill="#3f39ce" fill-rule="nonzero" group-id="1" id="路径" node-id="108" stroke="none" target-height="146.30005" target-width="36.4" target-x="88.1" target-y="649.1"/><path d="M 124.50 649.10 L 147.00 649.10 L 143.20 656.50 L 140.10 663.90 L 137.50 671.50 L 109.00 767.40 L 106.60 776.60 L 104.60 785.70 L 104.90 786.70 L 105.80 787.10 L 179.30 787.20 L 180.20 796.20 L 180.50 796.90 L 181.30 797.40 L 182.70 797.50 L 184.40 796.90 L 185.20 795.70 L 185.90 792.40 L 185.80 787.30 L 229.70 786.90 L 230.60 786.80 L 231.00 786.30 L 209.20 652.00 L 209.40 651.30 L 210.00 651.10 L 211.20 651.30 L 211.50 651.70 L 233.00 785.50 L 233.50 786.40 L 234.50 786.80 L 254.80 787.40 L 256.80 794.10 L 257.30 795.00 L 258.90 795.80 L 259.90 795.80 L 261.20 795.10 L 262.10 794.10 L 262.50 792.70 L 262.40 790.80 L 261.60 788.00 L 268.20 787.20 L 275.10 786.90 L 282.50 787.10 L 280.80 795.90 L 280.80 798.20 L 281.60 800.40 L 282.80 801.10 L 283.60 801.20 L 284.90 800.70 L 285.80 799.60 L 291.10 786.00 L 298.60 789.10 L 299.10 789.50 L 298.00 793.20 L 297.60 796.40 L 297.70 799.60 L 298.40 800.90 L 299.70 801.40 L 300.80 801.20 L 302.50 799.80 L 303.30 798.10 L 304.70 792.30 L 319.40 793.20 L 326.50 793.00 L 328.50 792.00 L 328.90 791.20 L 328.80 790.30 L 328.00 789.20 L 326.10 787.70 L 334.00 787.00 L 341.80 787.00 L 349.40 787.60 L 348.60 794.00 L 349.80 795.80 L 350.80 796.20 L 352.20 796.20 L 353.30 795.60 L 354.80 793.20 L 356.30 787.40 L 413.60 787.10 L 405.70 800.70 L 405.30 801.70 L 405.70 803.60 L 406.30 804.50 L 408.10 805.30 L 415.90 805.60 L 423.60 805.40 L 431.20 804.60 L 432.50 803.70 L 434.80 799.30 L 436.80 794.50 L 438.50 789.40 L 439.70 783.90 L 440.40 795.10 L 441.10 796.40 L 442.70 797.10 L 444.20 797.10 L 445.60 796.40 L 446.20 795.90 L 446.90 787.10 L 508.60 787.30 L 510.70 794.50 L 511.70 795.60 L 513.20 796.00 L 514.90 795.70 L 515.70 794.80 L 516.10 791.70 L 515.70 787.20 L 683.00 787.10 L 686.00 799.80 L 687.00 801.20 L 688.70 801.50 L 690.80 800.90 L 691.10 800.20 L 691.10 797.30 L 690.80 793.80 L 691.40 793.60 L 706.60 793.20 L 707.40 793.70 L 709.60 800.10 L 710.00 800.80 L 710.80 801.10 L 713.20 800.70 L 713.90 800.20 L 714.60 799.00 L 714.90 795.80 L 714.50 791.00 L 718.50 790.00 L 722.30 788.50 L 725.80 786.60 L 726.10 787.40 L 727.50 787.70 L 732.40 785.80 L 737.20 785.60 L 741.80 785.90 L 746.40 786.80 L 737.10 793.20 L 726.10 798.90 L 725.40 799.80 L 725.00 801.00 L 725.00 802.30 L 726.90 803.20 L 733.60 805.10 L 740.70 805.90 L 747.80 805.40 L 751.30 804.60 L 754.60 803.50 L 757.70 802.00 L 760.60 800.10 L 763.10 797.90 L 765.40 795.10 L 767.30 792.10 L 768.40 789.20 L 769.00 786.30 L 798.20 786.80 L 798.00 791.70 L 798.50 795.20 L 799.20 796.30 L 800.90 797.10 L 803.00 796.70 L 804.00 795.60 L 804.90 787.10 L 898.00 787.00 L 900.50 794.80 L 900.90 795.40 L 901.60 795.80 L 902.90 795.90 L 904.60 795.40 L 905.30 794.50 L 905.70 793.20 L 905.60 790.30 L 905.00 787.60 L 933.80 786.90 L 936.70 790.20 L 939.70 792.90 L 942.90 795.20 L 946.30 797.00 L 949.90 798.50 L 953.50 799.50 L 957.30 800.10 L 961.10 800.30 L 964.90 800.00 L 968.60 799.40 L 972.20 798.30 L 975.80 796.80 L 979.20 794.90 L 982.30 792.60 L 985.30 789.90 L 988.00 786.80 L 1013.60 787.00 L 1014.20 787.20 L 1014.40 787.90 L 1014.40 832.60 L 1014.00 833.50 L 1013.40 833.60 L 2.00 833.50 L 1.20 832.30 L 1.20 787.90 L 1.50 787.40 L 2.00 787.10 L 40.50 786.70 L 41.10 786.50 L 41.10 785.90 L 4.50 658.70 L 5.80 658.20 L 10.90 674.30 L 42.40 783.80 L 43.00 785.00 L 44.60 786.60 L 47.30 787.00 L 49.60 786.80 L 50.30 786.40 L 50.70 785.60 L 64.10 662.70 L 65.30 662.20 L 66.40 662.30 L 52.70 783.60 L 52.80 784.70 L 53.40 785.70 L 54.20 786.30 L 55.30 786.60 L 88.50 787.50 L 88.10 794.20 L 88.60 794.80 L 89.90 795.40 L 90.90 795.40 L 91.90 794.90 L 93.20 793.40 L 94.50 791.00 L 96.40 785.20 L 98.50 775.80 L 99.70 776.50 L 100.40 777.50 L 100.80 778.90 L 101.00 783.00 L 101.30 783.50 L 101.80 783.70 L 102.70 783.10 L 139.00 658.60 L 139.10 657.70 L 138.70 657.20 L 137.80 656.90 L 123.60 656.40 L 124.50 649.10 Z" fill="#c2c9ff" fill-rule="nonzero" group-id="1" id="路径" node-id="109" stroke="none" target-height="184.5" target-width="1013.2" target-x="1.2" target-y="649.1"/><path d="M 147.00 649.10 L 176.00 649.10 L 179.30 787.20 L 105.80 787.10 L 104.90 786.70 L 104.60 786.20 L 106.60 776.60 L 109.00 767.40 L 137.50 671.50 L 140.10 663.90 L 143.20 656.50 L 147.00 649.10 Z" fill="#fdfdfd" fill-rule="nonzero" group-id="1" id="路径" node-id="110" stroke="none" target-height="138.10004" target-width="74.700005" target-x="104.6" target-y="649.1"/><path d="M 182.30 649.10 L 227.10 649.10 L 254.80 787.40 L 234.50 786.80 L 233.50 786.40 L 233.00 785.50 L 211.50 651.70 L 211.20 651.30 L 210.00 651.10 L 209.40 651.30 L 209.20 652.00 L 231.00 786.30 L 230.60 786.80 L 229.70 786.90 L 185.80 787.30 L 182.30 649.10 Z" fill="#fdfdfd" fill-rule="nonzero" group-id="1" id="路径" node-id="111" stroke="none" target-height="138.30005" target-width="72.5" target-x="182.3" target-y="649.1"/><path d="M 762.70 649.00 L 802.50 649.00 L 798.20 786.80 L 769.00 786.30 L 769.40 778.00 L 766.90 763.50 L 768.60 761.60 L 768.90 759.50 L 770.30 734.60 L 770.70 722.90 L 770.50 711.00 L 770.10 703.10 L 768.20 687.70 L 766.60 680.20 L 764.60 673.10 L 760.80 663.00 L 760.00 660.10 L 759.80 657.30 L 760.10 654.60 L 761.00 651.90 L 762.70 649.00 Z" fill="#fdfdfd" fill-rule="nonzero" group-id="1" id="路径" node-id="112" stroke="none" target-height="137.79999" target-width="42.700012" target-x="759.8" target-y="649"/><path d="M 123.60 656.40 L 137.80 656.90 L 138.70 657.20 L 139.10 657.70 L 139.00 658.60 L 102.70 783.10 L 101.80 783.70 L 101.00 783.00 L 100.80 778.90 L 100.40 777.50 L 99.70 776.50 L 98.50 775.80 L 123.60 656.40 Z" fill="#fdfdfd" fill-rule="nonzero" group-id="1" id="路径" node-id="113" stroke="none" target-height="127.29999" target-width="40.600006" target-x="98.5" target-y="656.4"/><path d="M 116.90 656.90 L 102.70 723.70 L 101.60 723.60 L 100.80 723.10 L 100.20 722.30 L 99.70 720.60 L 99.50 718.40 L 100.00 710.70 L 99.40 684.60 L 99.30 658.00 L 99.80 657.30 L 101.30 656.70 L 116.90 656.90 Z" fill="#fdfdfd" fill-rule="nonzero" group-id="1" id="路径" node-id="114" stroke="none" target-height="67" target-width="17.599998" target-x="99.3" target-y="656.7"/><path d="M 64.10 662.70 L 50.70 785.60 L 50.30 786.40 L 49.60 786.80 L 45.70 786.90 L 43.70 785.90 L 42.40 783.80 L 10.90 674.30 L 5.80 658.20 L 8.80 657.50 L 16.40 657.10 L 38.60 657.00 L 63.50 657.30 L 64.10 657.50 L 64.50 658.10 L 64.70 659.60 L 64.10 662.70 Z" fill="#fdfdfd" fill-rule="nonzero" group-id="1" id="路径" node-id="115" stroke="none" target-height="129.90002" target-width="58.899998" target-x="5.8" target-y="657"/><path d="M 68.70 658.60 L 68.80 657.90 L 69.40 657.60 L 94.60 657.00 L 96.00 657.20 L 96.80 657.70 L 97.30 658.50 L 97.80 712.70 L 96.20 718.90 L 91.00 726.30 L 89.30 729.80 L 88.30 730.40 L 87.50 729.70 L 68.70 658.60 Z" fill="#fdfdfd" fill-rule="nonzero" group-id="1" id="路径" node-id="116" stroke="none" target-height="73.400024" target-width="29.100006" target-x="68.7" target-y="657"/><path d="M 383.10 659.60 L 391.20 693.10 L 399.70 726.10 L 409.80 762.70 L 411.60 766.10 L 413.70 767.70 L 415.30 768.20 L 415.10 783.40 L 413.60 787.10 L 356.30 787.40 L 383.10 659.60 Z" fill="#fdfdfd" fill-rule="nonzero" group-id="1" id="路径" node-id="117" stroke="none" target-height="127.80005" target-width="59" target-x="356.3" target-y="659.6"/><path d="M 100.20 732.70 L 88.50 787.50 L 55.30 786.60 L 54.20 786.30 L 53.40 785.70 L 52.80 784.70 L 52.70 783.60 L 66.40 662.30 L 66.70 661.80 L 67.60 662.60 L 68.40 665.20 L 86.20 732.60 L 85.50 734.90 L 57.70 778.10 L 54.50 784.20 L 55.00 784.60 L 55.30 784.50 L 59.20 779.30 L 72.30 758.10 L 85.90 737.40 L 86.50 737.40 L 87.30 738.20 L 91.90 754.60 L 92.20 754.90 L 93.00 754.70 L 93.20 754.30 L 88.20 733.80 L 96.50 721.30 L 97.30 720.80 L 97.60 721.50 L 100.20 732.70 Z" fill="#fdfdfd" fill-rule="nonzero" group-id="1" id="路径" node-id="118" stroke="none" target-height="125.70001" target-width="47.499996" target-x="52.7" target-y="661.8"/><path d="M 673.80 707.50 L 698.70 742.70 L 705.00 778.10 L 704.20 779.30 L 690.60 788.10 L 690.10 788.30 L 689.80 788.20 L 673.80 707.50 Z" fill="#fdfdfd" fill-rule="nonzero" group-id="1" id="路径" node-id="119" stroke="none" target-height="80.79999" target-width="31.200012" target-x="673.8" target-y="707.5"/><path d="M 973.60 711.70 L 1007.60 712.00 L 1008.20 712.30 L 1008.30 712.90 L 1004.70 737.60 L 1004.30 738.20 L 1003.70 738.50 L 998.30 738.80 L 997.80 738.50 L 995.60 739.30 L 923.30 739.00 L 917.40 738.10 L 917.10 737.30 L 913.90 713.40 L 914.10 712.50 L 960.10 712.40 L 973.60 711.70 Z" fill="#4350fc" fill-rule="nonzero" group-id="1" id="路径" node-id="120" stroke="none" target-height="27.599976" target-width="94.39996" target-x="913.9" target-y="711.7"/><path d="M 307.30 753.70 L 305.90 752.20 L 304.50 751.70 L 304.10 750.60 L 310.80 724.90 L 312.70 723.80 L 313.90 724.30 L 314.00 725.00 L 312.40 735.20 L 310.00 747.00 L 308.10 752.60 L 307.30 753.70 Z" fill="#3d3c91" fill-rule="nonzero" group-id="1" id="路径" node-id="121" stroke="none" target-height="29.900024" target-width="9.899994" target-x="304.1" target-y="723.8"/><path d="M 998.30 738.80 L 995.90 756.70 L 992.90 773.00 L 991.50 778.10 L 989.90 782.60 L 988.00 786.80 L 985.30 789.90 L 982.30 792.60 L 979.20 794.90 L 975.80 796.80 L 972.20 798.30 L 968.60 799.40 L 964.90 800.00 L 961.10 800.30 L 957.30 800.10 L 953.50 799.50 L 949.90 798.50 L 946.30 797.00 L 942.90 795.20 L 939.70 792.90 L 936.70 790.20 L 933.80 786.90 L 932.10 783.80 L 930.50 780.20 L 929.20 776.00 L 927.80 769.50 L 924.80 748.10 L 926.20 746.70 L 928.40 742.90 L 994.80 741.80 L 995.30 741.60 L 995.60 740.90 L 995.60 739.30 L 997.00 738.60 L 998.30 738.80 Z" fill="#3f45d7" fill-rule="nonzero" group-id="1" id="路径" node-id="122" stroke="none" target-height="61.700012" target-width="73.5" target-x="924.8" target-y="738.6"/><path d="M 923.30 739.00 L 995.60 739.30 L 995.60 740.90 L 995.30 741.60 L 994.80 741.80 L 929.10 742.70 L 928.40 742.90 L 926.20 746.70 L 924.80 748.10 L 923.30 739.00 Z" fill="#3d3c91" fill-rule="nonzero" group-id="1" id="路径" node-id="123" stroke="none" target-height="9.099976" target-width="72.29999" target-x="923.3" target-y="739"/><path d="M 730.60 749.30 L 733.20 755.20 L 717.40 765.80 L 713.50 754.30 L 717.60 752.50 L 721.80 751.00 L 726.20 750.00 L 730.60 749.30 Z" fill="#fe506e" fill-rule="nonzero" group-id="1" id="路径" node-id="124" stroke="none" target-height="16.5" target-width="19.700012" target-x="713.5" target-y="749.3"/><path d="M 706.90 750.80 L 709.60 751.80 L 713.50 754.30 L 717.40 765.80 L 717.10 767.30 L 716.00 769.60 L 711.10 774.60 L 706.90 750.80 Z" fill="#fdfdfd" fill-rule="nonzero" group-id="1" id="路径" node-id="125" stroke="none" target-height="23.799988" target-width="10.5" target-x="706.9" target-y="750.8"/><path d="M 304.50 751.70 L 305.90 752.20 L 307.30 753.70 L 303.20 773.00 L 302.40 772.60 L 297.30 765.60 L 297.20 765.20 L 304.50 751.70 Z" fill="#ffa3a6" fill-rule="nonzero" group-id="1" id="路径" node-id="126" stroke="none" target-height="21.299988" target-width="10.099976" target-x="297.2" target-y="751.7"/><path d="M 733.20 755.20 L 739.10 766.00 L 739.30 766.90 L 739.20 767.70 L 738.60 768.40 L 720.00 773.30 L 718.70 773.10 L 717.70 772.50 L 716.80 771.30 L 716.00 769.60 L 717.10 767.30 L 717.40 765.80 L 733.20 755.20 Z" fill="#3f39ce" fill-rule="nonzero" group-id="1" id="路径" node-id="127" stroke="none" target-height="18.099976" target-width="23.299988" target-x="716" target-y="755.2"/><path d="M 439.70 783.90 L 438.50 789.40 L 436.80 794.50 L 434.80 799.30 L 431.90 804.30 L 423.60 805.40 L 415.90 805.60 L 408.10 805.30 L 406.30 804.50 L 405.70 803.60 L 405.30 801.70 L 413.60 787.10 L 415.10 783.40 L 419.60 779.80 L 423.50 775.90 L 426.90 771.70 L 429.90 767.00 L 432.40 762.00 L 434.80 761.10 L 437.20 760.80 L 439.40 760.90 L 440.20 761.30 L 440.50 762.00 L 440.80 769.60 L 440.60 776.90 L 439.70 783.90 Z" fill="#a2a3ff" fill-rule="nonzero" group-id="1" id="路径" node-id="128" stroke="none" target-height="44.799988" target-width="35.5" target-x="405.3" target-y="760.8"/><path d="M 432.40 762.00 L 429.90 767.00 L 426.90 771.70 L 423.50 775.90 L 419.60 779.80 L 415.10 783.40 L 415.30 768.20 L 432.40 762.00 Z" fill="#797fff" fill-rule="nonzero" group-id="1" id="路径" node-id="129" stroke="none" target-height="21.400024" target-width="17.299988" target-x="415.1" target-y="762"/><path d="M 766.90 763.50 L 768.30 771.90 L 750.50 778.90 L 748.40 766.50 L 757.30 765.70 Z" fill="#ffa3a6" fill-rule="nonzero" group-id="1" id="路径" node-id="130" stroke="none" target-height="15.400024" target-width="19.899963" target-x="748.4" target-y="763.5"/><path d="M 271.10 763.60 L 285.40 765.30 L 285.90 765.50 L 286.10 766.00 L 286.30 771.10 L 286.00 775.70 L 285.20 779.80 L 284.20 783.50 L 281.00 781.70 L 278.30 779.60 L 276.10 777.20 L 274.20 774.40 L 272.80 771.30 L 271.70 767.70 L 271.10 763.60 Z" fill="#3d3c91" fill-rule="nonzero" group-id="1" id="路径" node-id="131" stroke="none" target-height="19.900024" target-width="15.199982" target-x="271.1" target-y="763.6"/><path d="M 748.40 766.50 L 750.50 778.90 L 746.40 786.80 L 741.80 785.90 L 737.20 785.60 L 732.40 785.80 L 727.50 787.70 L 726.10 787.40 L 725.80 786.60 L 729.60 784.50 L 733.00 782.10 L 735.80 779.40 L 738.30 776.50 L 740.30 773.30 L 743.50 765.50 L 744.10 765.20 L 745.30 765.20 L 748.40 766.50 Z" fill="#fdfdfd" fill-rule="nonzero" group-id="1" id="路径" node-id="132" stroke="none" target-height="22.5" target-width="24.700012" target-x="725.8" target-y="765.2"/><path d="M 768.30 771.90 L 769.00 774.70 L 769.40 778.00 L 769.40 781.90 L 769.00 786.30 L 768.40 789.20 L 767.30 792.10 L 765.40 795.10 L 763.10 797.90 L 760.60 800.10 L 757.70 802.00 L 754.60 803.50 L 751.30 804.60 L 747.80 805.40 L 740.70 805.90 L 737.10 805.60 L 730.20 804.30 L 725.30 802.50 L 725.00 802.30 L 725.00 801.00 L 725.40 799.80 L 726.10 798.90 L 727.20 798.20 L 737.10 793.20 L 746.40 786.80 L 750.50 778.90 L 768.30 771.90 Z" fill="#4350fc" fill-rule="nonzero" group-id="1" id="路径" node-id="133" stroke="none" target-height="34" target-width="44.400024" target-x="725" target-y="771.9"/></g></svg>